<svg width="29" height="29" viewBox="0 0 29 29" fill="none" xmlns="http://www.w3.org/2000/svg">
<path d="M14.6667 3.00008H8.4C6.15979 3.00008 5.03969 3.00008 4.18404 3.43606C3.43139 3.81955 2.81947 4.43147 2.43597 5.18412C2 6.03977 2 7.15987 2 9.40008V20.6001C2 22.8403 2 23.9604 2.43597 24.816C2.81947 25.5687 3.43139 26.1806 4.18404 26.5641C5.03969 27.0001 6.15979 27.0001 8.4 27.0001H20.6667C21.9066 27.0001 22.5266 27.0001 23.0353 26.8638C24.4156 26.4939 25.4938 25.4157 25.8637 24.0354C26 23.5267 26 22.9067 26 21.6668M23.3333 9.66675V1.66675M19.3333 5.66675H27.3333M12 10.3334C12 11.8062 10.8061 13.0001 9.33333 13.0001C7.86057 13.0001 6.66667 11.8062 6.66667 10.3334C6.66667 8.86066 7.86057 7.66675 9.33333 7.66675C10.8061 7.66675 12 8.86066 12 10.3334ZM17.9867 14.8909L6.7082 25.1441C6.07382 25.7209 5.75663 26.0092 5.72857 26.259C5.70425 26.4755 5.78727 26.6903 5.95091 26.8341C6.13971 27.0001 6.56837 27.0001 7.42571 27.0001H19.9413C21.8602 27.0001 22.8196 27.0001 23.5732 26.6777C24.5193 26.273 25.2729 25.5193 25.6776 24.5733C26 23.8197 26 22.8603 26 20.9414C26 20.2957 26 19.9729 25.9294 19.6723C25.8407 19.2945 25.6706 18.9406 25.431 18.6353C25.2403 18.3924 24.9883 18.1907 24.4841 17.7874L20.7544 14.8036C20.2499 14.4 19.9976 14.1981 19.7197 14.1269C19.4748 14.0641 19.2172 14.0722 18.9767 14.1503C18.7039 14.2389 18.4648 14.4563 17.9867 14.8909Z" stroke="#667085" stroke-width="2.66667" stroke-linecap="round" stroke-linejoin="round"/>
</svg>
