<svg width="676" height="594" viewBox="0 0 676 594" fill="none" xmlns="http://www.w3.org/2000/svg">
<g filter="url(#filter0_d_233_6240)">
<path d="M70.2878 315.342C96.72 348.416 130.021 361.713 147.256 400.717C147.644 401.596 148.024 402.488 148.396 403.394C152.265 412.815 154.232 422.817 155.457 433.058C157.895 453.434 157.394 474.76 163.08 494.362C174.791 534.733 213.268 561.854 251.624 561.999C289.98 562.145 326.542 538.125 349.301 504C356.766 492.809 363.235 480.226 373.699 472.509C388.685 461.459 408.125 462.88 426.067 461.112C470.309 456.754 512.235 429.294 536.939 388.492C536.939 388.492 601.026 304.91 555.658 185.336C542.471 150.581 521.095 118.661 491.619 99.7209C462.142 80.7789 410.848 80.3285 380.497 97.5025C348.229 115.761 326.776 155.781 291.407 164.572C270.906 169.667 249.741 163.046 229.096 158.715C200.137 152.638 170.618 148.864 141.377 152.968C106.96 157.799 72.2454 176.874 56.1912 219.76C50.5686 234.779 48.6788 251.255 50.9201 267.32C52.9284 281.727 58.0077 299.976 70.2878 315.342Z" fill="#F5F5FF"/>
<path d="M336.249 68.3787C328.81 58.0554 317.219 52.4205 305.629 49.2454C289.638 44.8646 272.441 44.5276 256.928 50.6615C241.416 56.7953 227.81 69.8713 222.09 86.9496C216.37 104.028 219.522 124.907 231.391 137.538C238.042 144.616 247.381 148.423 256.564 148.395C262.009 149.036 267.572 148.359 272.69 146.181C284.077 141.332 292.446 130.326 303.367 124.304C315.235 117.76 330.489 116.715 338.521 105.051C345.752 94.5482 343.688 78.7019 336.249 68.3787Z" fill="#F5F5FF"/>
<path d="M122.286 434.222C121.422 432.266 120.6 430.294 119.926 428.261C119.633 427.376 119.368 426.48 119.139 425.568C118.193 421.793 117.888 417.81 117.584 413.847C117.172 408.48 116.764 403.15 114.771 398.423C114.483 397.74 114.162 397.07 113.803 396.413C107.93 385.678 93.4629 383.719 83.6212 389.968C73.7796 396.218 68.1516 408.444 65.7518 420.706C64.2736 428.258 63.8434 436.301 66.1833 443.58C68.9054 452.045 75.0967 458.624 81.8473 463.626C89.3531 469.187 98.1187 473.269 107.151 472.93C111.172 472.78 115.226 471.601 118.803 469.536C121.624 468.182 124.128 466.089 125.851 463.374C127.103 461.734 128.159 459.915 128.931 457.907C132.14 449.562 129.246 438.581 122.286 434.222Z" fill="#F5F5FF"/>
<path d="M478.16 433.508H196.175C193.529 433.508 191.364 431.115 191.364 428.19V228.202C191.364 225.277 193.529 222.883 196.175 222.883H478.16C480.806 222.883 482.972 225.277 482.972 228.202V428.19C482.972 431.115 480.806 433.508 478.16 433.508Z" fill="#3498DB"/>
<path d="M475.753 238.199H198.582V413.083H475.753V238.199Z" fill="#EBF1F6"/>
<path d="M338.911 229.913C338.911 230.978 338.13 231.839 337.168 231.839C336.205 231.839 335.426 230.976 335.426 229.913C335.426 228.849 336.206 227.987 337.168 227.987C338.13 227.988 338.911 228.849 338.911 229.913Z" fill="#EBF1F6"/>
<path d="M522.22 502.232L486.401 439.221C484.379 435.665 480.846 433.507 477.047 433.507H197.29C193.491 433.507 189.957 435.665 187.936 439.221L152.117 502.232C151.104 504.017 150.743 506.136 151.06 508.184H523.276C523.593 506.138 523.233 504.017 522.22 502.232Z" fill="#EBF1F6"/>
<path d="M151.06 508.185C151.125 508.608 151.209 509.027 151.333 509.439L151.897 511.312C152.944 514.781 155.881 517.12 159.189 517.12H515.145C518.453 517.12 521.391 514.78 522.437 511.312L523.001 509.439C523.125 509.027 523.209 508.606 523.274 508.185H151.06Z" fill="#3498DB"/>
<path d="M210.767 464.603L212.512 460.362H203.881L202.034 464.603H210.767Z" fill="#3498DB"/>
<path d="M225.972 452.53L227.613 448.287H219.261L217.517 452.53H225.972Z" fill="#3498DB"/>
<path d="M214.295 460.362L212.552 464.603H221.304L222.944 460.362H214.295Z" fill="#3498DB"/>
<path d="M213.25 458.566L214.994 454.324H206.511L204.663 458.566H213.25Z" fill="#3498DB"/>
<path d="M388.981 448.287L389.946 452.53H397.368L396.3 448.287H388.981Z" fill="#3498DB"/>
<path d="M255.812 460.362L254.64 464.603H263.465L264.586 460.362H255.812Z" fill="#3498DB"/>
<path d="M245.493 460.362L244.112 464.603H252.943L254.114 460.362H245.493Z" fill="#3498DB"/>
<path d="M235.125 460.362L233.588 464.603H242.386L243.767 460.362H235.125Z" fill="#3498DB"/>
<path d="M224.709 460.362L223.07 464.603H231.838L233.375 460.362H224.709Z" fill="#3498DB"/>
<path d="M397.986 448.287L399.054 452.53H405.988L404.866 448.287H397.986Z" fill="#3498DB"/>
<path d="M285.657 454.324L284.691 458.566H291.67L292.531 454.324H285.657Z" fill="#3498DB"/>
<path d="M361.368 448.287L362.021 452.53H370.074L369.316 448.287H361.368Z" fill="#3498DB"/>
<path d="M284.39 452.53L285.356 448.287H278.037L276.967 452.53H284.39Z" fill="#3498DB"/>
<path d="M275.281 452.53L276.351 448.287H269.471L268.348 452.53H275.281Z" fill="#3498DB"/>
<path d="M292.896 452.53L293.758 448.287H287.03L286.066 452.53H292.896Z" fill="#3498DB"/>
<path d="M406.558 448.287L407.68 452.53H416.357L415.183 448.287H406.558Z" fill="#3498DB"/>
<path d="M249.423 448.287L248.042 452.53H256.281L257.454 448.287H249.423Z" fill="#3498DB"/>
<path d="M246.316 452.53L247.697 448.287H239.499L237.963 452.53H246.316Z" fill="#3498DB"/>
<path d="M229.38 448.287L227.739 452.53H236.213L237.749 448.287H229.38Z" fill="#3498DB"/>
<path d="M380.579 448.287L381.439 452.53H388.271L387.305 448.287H380.579Z" fill="#3498DB"/>
<path d="M370.971 448.287L371.729 452.53H379.774L378.914 448.287H370.971Z" fill="#3498DB"/>
<path d="M266.656 452.53L267.778 448.287H259.152L257.979 452.53H266.656Z" fill="#3498DB"/>
<path d="M276.803 446.493L277.8 442.544H270.989L269.944 446.493H276.803Z" fill="#3498DB"/>
<path d="M268.252 446.493L269.296 442.544H260.743L259.649 446.493H268.252Z" fill="#3498DB"/>
<path d="M351.885 448.287L352.332 452.53H360.373L359.721 448.287H351.885Z" fill="#3498DB"/>
<path d="M303.685 446.493L304.391 442.544H296.591L295.789 446.493H303.685Z" fill="#3498DB"/>
<path d="M294.123 446.493L294.926 442.544H288.338L287.44 446.493H294.123Z" fill="#3498DB"/>
<path d="M285.765 446.493L286.662 442.544H279.486L278.489 446.493H285.765Z" fill="#3498DB"/>
<path d="M446.724 448.287L448.363 452.53H456.82L455.075 448.287H446.724Z" fill="#3498DB"/>
<path d="M228.308 446.493L229.835 442.544H221.622L219.999 446.493H228.308Z" fill="#3498DB"/>
<path d="M238.4 446.493L239.83 442.544H231.601L230.074 446.493H238.4Z" fill="#3498DB"/>
<path d="M257.951 446.493L259.043 442.544H251.292L250.007 446.493H257.951Z" fill="#3498DB"/>
<path d="M456.86 448.287L458.605 452.53H467.042L465.194 448.287H456.86Z" fill="#3498DB"/>
<path d="M248.281 446.493L249.567 442.544H241.58L240.15 446.493H248.281Z" fill="#3498DB"/>
<path d="M416.881 448.287L418.055 452.53H426.295L424.914 448.287H416.881Z" fill="#3498DB"/>
<path d="M302.862 460.362L302.104 464.603H310.453L311.107 460.362H302.862Z" fill="#3498DB"/>
<path d="M266.279 460.362L265.157 464.603H272.237L273.306 460.362H266.279Z" fill="#3498DB"/>
<path d="M292.971 460.362L292.109 464.603H300.449L301.206 460.362H292.971Z" fill="#3498DB"/>
<path d="M274.994 460.362L273.924 464.603H281.642L282.607 460.362H274.994Z" fill="#3498DB"/>
<path d="M284.283 460.362L283.317 464.603H290.443L291.305 460.362H284.283Z" fill="#3498DB"/>
<path d="M314.616 448.287L313.962 452.53H322.004L322.451 448.287H314.616Z" fill="#3498DB"/>
<path d="M313.245 446.493L313.854 442.544H306.046L305.34 446.493H313.245Z" fill="#3498DB"/>
<path d="M303.94 454.324L303.183 458.566H311.384L312.038 454.324H303.94Z" fill="#3498DB"/>
<path d="M436.587 448.287L438.124 452.53H446.597L444.957 448.287H436.587Z" fill="#3498DB"/>
<path d="M321.369 458.566L321.815 454.324H313.685L313.031 458.566H321.369Z" fill="#3498DB"/>
<path d="M426.639 448.287L428.021 452.53H436.374L434.837 448.287H426.639Z" fill="#3498DB"/>
<path d="M215.732 452.53L217.477 448.287H209.141L207.293 452.53H215.732Z" fill="#3498DB"/>
<path d="M400.412 464.603L399.343 460.362H391.729L392.694 464.603H400.412Z" fill="#3498DB"/>
<path d="M276.514 454.324L275.446 458.566H283.016L283.982 454.324H276.514Z" fill="#3498DB"/>
<path d="M414.686 446.493L413.594 442.544H405.04L406.083 446.493H414.686Z" fill="#3498DB"/>
<path d="M434.186 446.493L432.757 442.544H424.769L426.055 446.493H434.186Z" fill="#3498DB"/>
<path d="M424.329 446.493L423.043 442.544H415.293L416.385 446.493H424.329Z" fill="#3498DB"/>
<path d="M378.548 446.493L377.746 442.544H369.946L370.65 446.493H378.548Z" fill="#3498DB"/>
<path d="M368.996 446.493L368.291 442.544H360.483L361.091 446.493H368.996Z" fill="#3498DB"/>
<path d="M444.263 446.493L442.735 442.544H434.507L435.937 446.493H444.263Z" fill="#3498DB"/>
<path d="M395.847 446.493L394.851 442.544H387.673L388.572 446.493H395.847Z" fill="#3498DB"/>
<path d="M386.897 446.493L385.998 442.544H379.411L380.212 446.493H386.897Z" fill="#3498DB"/>
<path d="M391.02 464.603L390.054 460.362H383.032L383.892 464.603H391.02Z" fill="#3498DB"/>
<path d="M451.267 464.603L449.626 460.362H440.961L442.498 464.603H451.267Z" fill="#3498DB"/>
<path d="M430.226 464.603L428.844 460.362H420.221L421.394 464.603H430.226Z" fill="#3498DB"/>
<path d="M472.303 464.603L470.453 460.362H461.825L463.569 464.603H472.303Z" fill="#3498DB"/>
<path d="M461.786 464.603L460.041 460.362H451.393L453.032 464.603H461.786Z" fill="#3498DB"/>
<path d="M440.747 464.603L439.21 460.362H430.571L431.951 464.603H440.747Z" fill="#3498DB"/>
<path d="M382.227 464.603L381.367 460.362H373.13L373.888 464.603H382.227Z" fill="#3498DB"/>
<path d="M454.338 446.493L452.714 442.544H444.501L446.029 446.493H454.338Z" fill="#3498DB"/>
<path d="M468.846 452.53H476.632L474.463 448.287H466.997L468.846 452.53Z" fill="#3498DB"/>
<path d="M409.181 464.603L408.058 460.362H401.029L402.098 464.603H409.181Z" fill="#3498DB"/>
<path d="M464.412 446.493L462.69 442.544H454.497L456.121 446.493H464.412Z" fill="#3498DB"/>
<path d="M419.696 464.603L418.523 460.362H409.751L410.872 464.603H419.696Z" fill="#3498DB"/>
<path d="M473.547 446.493L471.526 442.544H464.493L466.215 446.493H473.547Z" fill="#3498DB"/>
<path d="M404.392 446.493L403.349 442.544H396.537L397.533 446.493H404.392Z" fill="#3498DB"/>
<path d="M351.967 464.603L351.521 460.362H343.102L343.258 464.603H351.967Z" fill="#3498DB"/>
<path d="M227.045 454.324L225.405 458.566H234.026L235.562 454.324H227.045Z" fill="#3498DB"/>
<path d="M361.306 458.566L360.652 454.324H352.52L352.967 458.566H361.306Z" fill="#3498DB"/>
<path d="M223.637 458.566L225.279 454.324H216.778L215.034 458.566H223.637Z" fill="#3498DB"/>
<path d="M295.424 448.287L294.562 452.53H302.606L303.364 448.287H295.424Z" fill="#3498DB"/>
<path d="M305.021 448.287L304.261 452.53H312.315L312.968 448.287H305.021Z" fill="#3498DB"/>
<path d="M257.482 454.324L256.309 458.566H265.06L266.181 454.324H257.482Z" fill="#3498DB"/>
<path d="M237.312 454.324L235.775 458.566H244.35L245.731 454.324H237.312Z" fill="#3498DB"/>
<path d="M267.874 454.324L266.753 458.566H273.759L274.828 454.324H267.874Z" fill="#3498DB"/>
<path d="M342.884 454.324L343.038 458.566H351.332L350.885 454.324H342.884Z" fill="#3498DB"/>
<path d="M247.458 454.324L246.077 458.566H254.611L255.784 454.324H247.458Z" fill="#3498DB"/>
<path d="M350.062 446.493L349.645 442.544H342.453L342.597 446.493H350.062Z" fill="#3498DB"/>
<path d="M372.233 464.603L371.475 460.362H363.23L363.883 464.603H372.233Z" fill="#3498DB"/>
<path d="M333.509 442.544L333.364 446.493H340.971L340.827 442.544H333.509Z" fill="#3498DB"/>
<path d="M333.299 448.287L333.144 452.53H341.191L341.036 448.287H333.299Z" fill="#3498DB"/>
<path d="M350.697 452.53L350.249 448.287H342.662L342.817 452.53H350.697Z" fill="#3498DB"/>
<path d="M359.444 446.493L358.835 442.544H351.28L351.697 446.493H359.444Z" fill="#3498DB"/>
<path d="M333.079 454.324L332.923 458.566H341.412L341.257 454.324H333.079Z" fill="#3498DB"/>
<path d="M332.859 460.362L332.704 464.603H341.632L341.477 460.362H332.859Z" fill="#3498DB"/>
<path d="M331.739 446.493L331.883 442.544H324.69L324.275 446.493H331.739Z" fill="#3498DB"/>
<path d="M314.893 446.493H322.64L323.055 442.544H315.503L314.893 446.493Z" fill="#3498DB"/>
<path d="M371.154 458.566L370.395 454.324H362.298L362.953 458.566H371.154Z" fill="#3498DB"/>
<path d="M294.197 454.324L293.336 458.566H301.527L302.285 454.324H294.197Z" fill="#3498DB"/>
<path d="M190.611 466.398L188.714 470.109H197.832L199.449 466.398H190.611Z" fill="#3498DB"/>
<path d="M407.584 458.566L406.463 454.324H399.507L400.578 458.566H407.584Z" fill="#3498DB"/>
<path d="M402.551 466.398L403.487 470.109H410.636L409.655 466.398H402.551Z" fill="#3498DB"/>
<path d="M389.645 458.566L388.68 454.324H381.805L382.666 458.566H389.645Z" fill="#3498DB"/>
<path d="M331.079 464.603L331.233 460.362H322.815L322.369 464.603H331.079Z" fill="#3498DB"/>
<path d="M432.536 466.398L433.743 470.109H442.741L441.398 466.398H432.536Z" fill="#3498DB"/>
<path d="M459.304 458.566L457.559 454.324H449.057L450.698 458.566H459.304Z" fill="#3498DB"/>
<path d="M443.148 466.398L444.491 470.109H453.396L451.96 466.398H443.148Z" fill="#3498DB"/>
<path d="M312.754 460.362L312.1 464.603H320.734L321.18 460.362H312.754Z" fill="#3498DB"/>
<path d="M193.697 460.362L191.529 464.603H200.231L202.079 460.362H193.697Z" fill="#3498DB"/>
<path d="M353.791 466.398L354.182 470.109H363.085L362.513 466.398H353.791Z" fill="#3498DB"/>
<path d="M222.376 466.398L220.941 470.109H229.845L231.188 466.398H222.376Z" fill="#3498DB"/>
<path d="M331.014 466.398H322.18L321.79 470.109H330.878L331.014 466.398Z" fill="#3498DB"/>
<path d="M448.931 458.566L447.293 454.324H438.775L440.31 458.566H448.931Z" fill="#3498DB"/>
<path d="M201.252 466.398L199.634 470.109H208.503L210.03 466.398H201.252Z" fill="#3498DB"/>
<path d="M372.05 454.324L372.809 458.566H381.001L380.141 454.324H372.05Z" fill="#3498DB"/>
<path d="M411.346 466.398L412.328 470.109H421.22L420.191 466.398H411.346Z" fill="#3498DB"/>
<path d="M374.209 466.398L374.871 470.109H383.346L382.594 466.398H374.209Z" fill="#3498DB"/>
<path d="M418.026 458.566L416.853 454.324H408.155L409.275 458.566H418.026Z" fill="#3498DB"/>
<path d="M428.261 458.566L426.878 454.324H418.552L419.725 458.566H428.261Z" fill="#3498DB"/>
<path d="M364.161 466.398L364.732 470.109H373.215L372.554 466.398H364.161Z" fill="#3498DB"/>
<path d="M421.891 466.398L422.919 470.109H432.017L430.81 466.398H421.891Z" fill="#3498DB"/>
<path d="M199.872 448.287L197.703 452.53H205.491L207.339 448.287H199.872Z" fill="#3498DB"/>
<path d="M464.307 466.398L465.833 470.109H474.701L473.083 466.398H464.307Z" fill="#3498DB"/>
<path d="M202.809 442.544L200.79 446.493H208.121L209.842 442.544H202.809Z" fill="#3498DB"/>
<path d="M438.56 458.566L437.025 454.324H428.604L429.987 458.566H438.56Z" fill="#3498DB"/>
<path d="M309.604 470.109L310.176 466.398H232.938L231.593 470.109H309.604Z" fill="#3498DB"/>
<path d="M384.258 466.398L385.011 470.109H392.273L391.427 466.398H384.258Z" fill="#3498DB"/>
<path d="M323.64 452.53H331.52L331.674 448.287H324.086L323.64 452.53Z" fill="#3498DB"/>
<path d="M480.638 460.362H472.256L476.505 470.109H485.623L480.638 460.362Z" fill="#3498DB"/>
<path d="M471.476 458.566H479.721L477.55 454.324H469.627L471.476 458.566Z" fill="#3498DB"/>
<path d="M469.673 458.566L467.824 454.324H459.342L461.087 458.566H469.673Z" fill="#3498DB"/>
<path d="M320.155 470.109L320.545 466.398H311.823L311.252 470.109H320.155Z" fill="#3498DB"/>
<path d="M332.64 466.398L332.504 470.109H352.548L352.155 466.398H332.64Z" fill="#3498DB"/>
<path d="M453.728 466.398L455.162 470.109H464.05L462.524 466.398H453.728Z" fill="#3498DB"/>
<path d="M398.892 458.566L397.821 454.324H390.355L391.321 458.566H398.892Z" fill="#3498DB"/>
<path d="M393.102 466.398L393.948 470.109H401.801L400.865 466.398H393.102Z" fill="#3498DB"/>
<path d="M196.784 454.324L194.616 458.566H202.861L204.709 454.324H196.784Z" fill="#3498DB"/>
<path d="M218.214 446.493L219.839 442.544H211.645L209.924 446.493H218.214Z" fill="#3498DB"/>
<path d="M211.813 466.398L210.287 470.109H219.173L220.609 466.398H211.813Z" fill="#3498DB"/>
<path d="M331.299 458.566L331.454 454.324H323.451L323.005 458.566H331.299Z" fill="#3498DB"/>
<path d="M361.583 460.362H353.157L353.603 464.603H362.236L361.583 460.362Z" fill="#3498DB"/>
<path d="M388.051 501.722H286.285C285.853 501.722 285.457 501.501 285.2 501.117C284.943 500.732 284.87 500.25 284.996 499.792L291.466 476.552C291.642 475.922 292.16 475.501 292.755 475.501H381.583C382.178 475.501 382.696 475.923 382.872 476.552L389.342 499.792C389.469 500.25 389.395 500.732 389.138 501.117C388.879 501.501 388.484 501.722 388.051 501.722ZM292.754 476.83C292.689 476.83 292.634 476.875 292.614 476.945L286.146 500.185C286.127 500.248 286.147 500.298 286.167 500.328C286.187 500.357 286.223 500.392 286.284 500.392H388.051C388.112 500.392 388.148 500.357 388.168 500.328C388.188 500.298 388.208 500.248 388.191 500.185L381.721 476.943C381.703 476.877 381.645 476.83 381.581 476.83H292.754Z" fill="#3498DB"/>
<path d="M386.588 264.999L276.043 284.271L382.331 343.051L492.419 324.954L386.588 264.999Z" fill="#2578B0"/>
<path d="M276.043 284.271V287.066L382.411 348.508L492.419 327.63V324.954L382.331 343.051L276.043 284.271Z" fill="#76BCEB"/>
<path d="M317.159 350.403L315.465 362.825C315.465 362.825 360.858 403.11 424.863 383.302L425.843 373.596C369.268 384.059 333.654 363.788 317.159 350.403Z" fill="#76BCEB"/>
<path d="M451.93 415.813C446.006 410.62 441.81 402.96 439.811 394.9C439.663 394.303 438.941 394.519 438.857 395.031C438.723 394.832 438.452 394.805 438.235 394.93C438.132 394.515 437.52 394.325 437.286 394.827C433.224 403.531 436.362 413.362 439.08 421.972C439.293 422.649 439.971 422.284 439.756 421.606C437.629 414.867 435.352 407.321 436.647 400.222C435.925 409.198 438.631 418.391 443.588 425.514C443.946 426.028 444.501 425.411 444.142 424.893C439.642 418.426 437.316 410.22 437.556 402.069C437.695 405.279 438.145 408.481 439.074 411.509C440.498 416.147 442.878 420.575 445.26 424.682C445.611 425.287 446.163 424.664 445.813 424.061C443.524 420.113 441.549 415.872 440.12 411.44C439.507 409.541 439.105 407.551 438.848 405.533C440.217 412.061 443.07 418.199 447.17 423.182C447.602 423.706 448.173 423.241 447.736 422.71C443.243 417.25 440.542 410.259 439.427 403.046C441.076 409.801 444.118 416.19 448.136 421.678C448.542 422.233 448.965 421.631 448.555 421.07C444.633 415.713 442.04 409.45 440.421 402.859C442.602 409.657 445.434 416.215 450.434 421.049C450.924 421.523 451.46 420.974 450.971 420.502C447.536 417.181 445.272 412.695 443.427 408.197C445.43 412.13 447.837 415.806 450.631 419.128C451.073 419.654 451.446 418.818 451.01 418.298C448.551 415.376 446.665 412.139 444.838 408.717C446.72 411.503 448.907 414.041 451.384 416.212C451.89 416.658 452.44 416.261 451.93 415.813Z" fill="#F0C64B"/>
<path d="M441.518 321.747C439.209 318.697 436.091 316.692 432.898 314.98C426.547 311.577 419.492 310.097 412.609 308.658C402.879 306.623 392.925 304.739 384.835 297.962C384.521 297.698 384.217 297.831 384.036 298.099C384.02 298.115 384.009 298.136 383.996 298.153C383.991 298.164 383.984 298.169 383.979 298.18C383.784 298.445 383.731 298.826 384.02 299.131C389.949 305.396 397.875 308.497 405.678 310.68C413.563 312.887 421.611 314.397 429.158 317.861C429.393 317.968 429.627 318.076 429.861 318.183C429.907 318.204 430.156 318.33 430.158 318.329C430.545 318.536 430.927 318.75 431.312 318.96C432.725 319.735 434.1 320.537 435.393 321.542C436.944 322.748 438.379 324.224 439.375 326.019C440.465 327.981 440.843 330.181 440.803 332.463C440.762 334.837 440.364 337.199 440.015 339.536C439.654 341.958 439.329 344.385 438.992 346.809C438.295 351.823 437.647 356.84 437.157 361.883C436.079 372.985 435.785 384.309 437.591 395.342C437.725 396.16 438.968 395.981 438.912 395.145C438.21 384.674 438.983 374.176 440.312 363.802C440.974 358.64 441.775 353.498 442.592 348.362C443.357 343.541 444.369 338.682 444.728 333.798C445.053 329.369 444.124 325.19 441.518 321.747Z" fill="#F0C64B"/>
<path d="M437.09 396.131C437.205 396.069 437.321 396.013 437.438 395.959C437.508 395.928 437.506 395.929 437.427 395.962C437.462 395.948 437.495 395.934 437.53 395.922C437.582 395.903 437.633 395.884 437.685 395.866C437.937 395.78 438.194 395.719 438.455 395.677C438.518 395.667 438.582 395.655 438.644 395.651C438.469 395.661 438.674 395.651 438.708 395.648C438.835 395.641 438.963 395.638 439.089 395.641C439.216 395.644 439.342 395.651 439.469 395.664C439.531 395.672 439.595 395.679 439.658 395.688C439.694 395.694 439.73 395.698 439.766 395.705C439.678 395.688 439.672 395.686 439.748 395.702C439.933 395.741 440.096 395.751 440.269 395.649C440.412 395.566 440.55 395.395 440.593 395.218C440.678 394.869 440.525 394.361 440.155 394.285C438.891 394.024 437.615 394.189 436.455 394.818C436.138 394.99 435.998 395.486 436.179 395.825C436.37 396.182 436.752 396.315 437.09 396.131Z" fill="#D8A32B"/>
<path d="M436.956 394.679C437.07 394.618 437.186 394.562 437.303 394.507C437.374 394.476 437.371 394.478 437.293 394.51C437.327 394.497 437.36 394.484 437.395 394.47C437.447 394.451 437.499 394.432 437.551 394.414C437.803 394.329 438.06 394.266 438.321 394.226C438.383 394.216 438.447 394.204 438.51 394.2C438.334 394.21 438.539 394.2 438.574 394.197C438.7 394.189 438.828 394.186 438.955 394.189C439.081 394.192 439.209 394.2 439.334 394.214C439.398 394.222 439.461 394.229 439.523 394.238C439.559 394.244 439.595 394.25 439.631 394.255C439.543 394.238 439.537 394.236 439.614 394.253C439.799 394.291 439.961 394.301 440.134 394.2C440.277 394.116 440.417 393.943 440.458 393.768C440.543 393.419 440.39 392.91 440.02 392.835C438.755 392.574 437.48 392.739 436.32 393.368C436.005 393.54 435.864 394.038 436.045 394.375C436.235 394.731 436.616 394.863 436.956 394.679Z" fill="#D8A32B"/>
<path d="M429.168 344.364L429.716 339.53L382.411 348.508L322.859 314.109L321.584 322.237L381.222 355.424L429.168 344.364Z" fill="#DDF1FF"/>
<path d="M381.222 355.424L321.584 322.237L317.159 350.403C333.654 363.788 369.268 384.059 425.843 373.597L429.166 344.364L381.222 355.424Z" fill="#2578B0"/>
<path d="M308.925 393.637C311.565 401.496 305.893 411.072 296.258 415.026C286.622 418.979 281.122 413.994 277.268 406.774C271.631 396.213 277.064 390.518 286.7 386.564C296.336 382.612 306.286 385.778 308.925 393.637Z" fill="#FFF6DC"/>
<path d="M212.708 307.081C212.708 307.081 236.619 334.299 256.213 383.151C256.213 383.151 265.506 409.67 271.603 416.3C271.603 416.3 266.669 410.155 274.204 400.342C279.739 393.135 287.81 388.719 296.356 388.385C301.131 388.198 306.119 389.302 308.958 393.739C308.958 393.739 277.068 352.216 256.233 316.389C247.908 302.075 243.968 290.249 242.238 281.207C242.238 281.207 240.668 279.166 237.539 277.458C226.036 271.179 212.485 279.631 210.478 293.637C210.291 294.944 210.173 296.337 210.143 297.818C210.143 297.818 209.978 304.025 212.708 307.081Z" fill="white"/>
<path d="M271.603 416.3C271.603 416.3 282.069 430.26 305.772 413.511C305.772 413.511 320.442 402.693 313.119 383.85C313.119 383.85 297.905 371.314 285.909 355.424C273.912 339.533 259.074 317.899 246.762 289.284L243.623 287.185C243.623 287.185 245.886 300.754 260.539 323.619C275.192 346.486 302.223 384.767 302.223 384.767L306.356 390.272C308.729 393.433 309.544 397.774 308.234 401.617C306.367 407.09 300.889 413.573 285.594 414.556L276.043 398.165C276.043 398.165 266.769 406.654 271.603 416.3Z" fill="#F4E7BD"/>
<path d="M294.754 366.05C294.754 366.05 267.284 334.389 248.027 284.271C248.027 284.271 244.554 278.169 242.344 275.353C242.344 275.353 259.085 332.547 294.754 366.05Z" fill="white"/>
<path d="M244.232 356.862C250.011 345.34 262.499 337.72 274.388 338.379C278.619 338.613 278.607 332.797 274.388 332.563C260.288 331.782 246.31 339.56 239.473 353.194C239.473 353.194 242.177 360.958 244.232 356.862Z" fill="#F0C64B"/>
<path d="M201.674 378.041H147.761C140.613 378.041 134.766 371.578 134.766 363.677V332.643C134.766 324.742 140.613 318.279 147.761 318.279H201.674C208.822 318.279 214.669 324.742 214.669 332.643V363.677C214.669 371.578 208.822 378.041 201.674 378.041Z" fill="#76BCEB"/>
<path d="M166.142 337.216L183.293 348.161L166.142 359.105V337.216Z" fill="#EBF1F6"/>
<path d="M159.107 246.235C159.107 227.988 145.725 213.197 129.218 213.197C112.711 213.197 99.3279 227.988 99.3279 246.235C99.3279 259.46 106.36 270.864 116.514 276.142V286.679H141.923V276.142C152.076 270.864 159.107 259.46 159.107 246.235Z" fill="white"/>
<path d="M142.74 292.124H115.695C114.339 292.124 113.231 290.899 113.231 289.401C113.231 287.902 114.339 286.677 115.695 286.677H142.742C144.096 286.677 145.205 287.902 145.205 289.401C145.204 290.899 144.096 292.124 142.74 292.124Z" fill="#F0C64B"/>
<path d="M129.218 307.577C123.76 307.577 119.336 302.687 119.336 296.655V294.849H139.101V296.655C139.099 302.687 134.675 307.577 129.218 307.577Z" fill="#F0C64B"/>
<path d="M142.74 297.57H115.695C114.339 297.57 113.231 296.344 113.231 294.847C113.231 293.35 114.339 292.124 115.695 292.124H142.74C144.095 292.124 145.205 293.349 145.205 294.847C145.204 296.346 144.096 297.57 142.74 297.57Z" fill="#D8A32B"/>
<path d="M131.936 286.679H130.535V240.781C130.535 239.979 129.943 239.326 129.218 239.326C128.491 239.326 127.899 239.979 127.899 240.781V286.679H126.498V240.781C126.498 239.124 127.718 237.777 129.218 237.777C130.717 237.777 131.936 239.124 131.936 240.781V286.679Z" fill="#F0C64B"/>
<path d="M82.2376 234.971L81.4172 239.699L93.9103 242.346C94.0781 240.733 94.3338 239.15 94.6721 237.602L82.2376 234.971Z" fill="#3498DB"/>
<path d="M92.1338 213.197L89.4996 217.038L99.4637 225.375C100.261 224.028 101.132 222.737 102.07 221.513L92.1338 213.197Z" fill="#3498DB"/>
<path d="M109.6 198.49L105.708 200.656L111.31 212.929C112.56 212.121 113.856 211.391 115.197 210.754L109.6 198.49Z" fill="#3498DB"/>
<path d="M177.018 239.699L176.198 234.971L163.762 237.602C164.1 239.149 164.357 240.733 164.524 242.346L177.018 239.699Z" fill="#3498DB"/>
<path d="M168.934 217.038L166.3 213.197L156.364 221.513C157.302 222.739 158.171 224.028 158.97 225.375L168.934 217.038Z" fill="#3498DB"/>
<path d="M152.727 200.656L148.836 198.49L143.237 210.755C144.578 211.393 145.874 212.123 147.124 212.931L152.727 200.656Z" fill="#3498DB"/>
<path d="M131.444 207.66L131.336 193.687L126.978 193.731L127.087 207.651C127.793 207.605 128.501 207.574 129.216 207.574C129.966 207.576 130.708 207.609 131.444 207.66Z" fill="#3498DB"/>
<path d="M570.732 498.566H444.416V526.094H570.732V498.566Z" fill="#F0C64B"/>
<path d="M456.612 498.566H451.525V526.094H456.612V498.566Z" fill="#D8A32B"/>
<path d="M464.25 498.566H459.161V526.094H464.25V498.566Z" fill="#D8A32B"/>
<path d="M555.987 498.566H550.899V526.094H555.987V498.566Z" fill="#D8A32B"/>
<path d="M563.622 498.566H558.534V526.094H563.622V498.566Z" fill="#D8A32B"/>
<path d="M582.886 483.226V478.991C582.886 472.972 578.455 468.076 573.011 468.076H460.43V494.142H573.011C578.455 494.142 582.886 489.245 582.886 483.226Z" fill="white"/>
<path d="M573.01 463.489H459.693V468.076H573.01C578.455 468.076 582.885 472.973 582.885 478.991V483.226C582.885 489.245 578.454 494.141 573.01 494.141H459.693V498.728H573.01C580.743 498.728 587.034 491.774 587.034 483.226V478.991C587.034 470.443 580.743 463.489 573.01 463.489Z" fill="#76BCEB"/>
<path d="M575.215 473.911H460.429V475.997H575.215V473.911Z" fill="#F5F5FF"/>
<path d="M575.215 480.193H460.429V482.279H575.215V480.193Z" fill="#F5F5FF"/>
<path d="M575.215 486.476H460.429V488.562H575.215V486.476Z" fill="#F5F5FF"/>
<path d="M450.779 449.693V445.879C450.779 440.459 454.768 436.051 459.671 436.051H561.044V459.522H459.671C454.769 459.522 450.779 455.113 450.779 449.693Z" fill="white"/>
<path d="M459.671 431.92H561.707V436.051H459.671C454.768 436.051 450.779 440.459 450.779 445.879V449.693C450.779 455.113 454.768 459.522 459.671 459.522H561.707V463.652H459.671C452.708 463.652 447.042 457.39 447.042 449.693V445.879C447.042 438.182 452.708 431.92 459.671 431.92Z" fill="#F0C64B"/>
<path d="M457.685 443.183H561.044V441.305H457.685V443.183Z" fill="#F5F5FF"/>
<path d="M457.685 448.839H561.044V446.961H457.685V448.839Z" fill="#F5F5FF"/>
<path d="M457.685 454.497H561.044V452.619H457.685V454.497Z" fill="#F5F5FF"/>
<path d="M247.097 139.23C251.869 139.23 255.737 143.375 255.737 148.487V149.896C257.474 155.3 258.532 162.333 258.532 170.045C258.532 177.757 257.473 184.789 255.737 190.194V191.603C255.737 196.715 251.869 200.86 247.097 200.86C240.782 200.86 235.663 187.065 235.663 170.045C235.662 153.026 240.782 139.23 247.097 139.23Z" fill="#F0C64B"/>
<path d="M239.548 170.437C239.548 180.847 240.278 189.287 241.176 189.287C242.077 189.287 242.805 180.848 242.805 170.437C242.805 160.026 242.075 151.586 241.176 151.586C240.278 151.587 239.548 160.026 239.548 170.437Z" fill="#D8A32B"/>
<path d="M267.833 156.081V184.793C267.244 191.897 261.333 198.481 253.409 200.86V140.014C261.333 142.393 267.244 148.978 267.833 156.081Z" fill="#3498DB"/>
<path d="M253.409 204.158C254.699 204.158 255.754 203.027 255.754 201.645V139.23C255.754 137.848 254.698 136.716 253.409 136.716C252.118 136.716 251.063 137.846 251.063 139.23V201.645C251.062 203.027 252.118 204.158 253.409 204.158Z" fill="#76BCEB"/>
<path d="M202.219 139.23C197.447 139.23 193.58 143.375 193.58 148.487V149.896C191.842 155.3 190.784 162.333 190.784 170.045C190.784 177.757 191.843 184.789 193.58 190.194V191.603C193.58 196.715 197.447 200.86 202.219 200.86C208.534 200.86 213.653 187.065 213.653 170.045C213.653 153.026 208.534 139.23 202.219 139.23Z" fill="#F0C64B"/>
<path d="M209.767 170.437C209.767 180.847 209.037 189.287 208.138 189.287C207.24 189.287 206.51 180.848 206.51 170.437C206.51 160.026 207.24 151.586 208.138 151.586C209.037 151.587 209.767 160.026 209.767 170.437Z" fill="#D8A32B"/>
<path d="M181.482 156.081V184.793C182.071 191.897 187.982 198.481 195.906 200.86V140.014C187.982 142.393 182.071 148.978 181.482 156.081Z" fill="#3498DB"/>
<path d="M195.908 204.158C194.617 204.158 193.562 203.027 193.562 201.645V139.23C193.562 137.848 194.617 136.716 195.908 136.716C197.198 136.716 198.253 137.846 198.253 139.23V201.645C198.253 203.027 197.197 204.158 195.908 204.158Z" fill="#76BCEB"/>
<path d="M253.63 101.246C248.943 96.9697 242.797 94.2626 236.968 92.6817C230.983 91.058 224.732 90.6429 218.613 91.4275C216.766 91.6645 214.926 91.9839 213.107 92.4079C211.862 92.6979 210.494 92.9246 209.34 93.5296C208.133 94.1625 206.951 94.8603 205.757 95.5256C202.526 97.3259 199.294 99.1262 196.063 100.926C194.777 101.643 194.929 103.723 196.063 104.483C199.051 106.485 202.472 106.741 205.855 106.145C208.233 105.725 210.405 104.749 212.662 103.885C216.718 102.332 221.099 101.573 225.382 101.551C229.2 101.531 233.073 102.163 236.601 103.831C241.82 106.316 248.063 107.969 253.253 104.483C254.196 103.847 254.583 102.116 253.63 101.246Z" fill="#3498DB"/>
<path d="M225.465 89.1371L225.473 89.0914C225.199 89.0914 224.93 89.1091 224.657 89.1135C224.386 89.1091 224.117 89.0914 223.842 89.0914L223.85 89.1371C196.944 90.085 175.391 114.476 175.391 144.447V178.035C175.391 181.765 178.126 184.79 181.502 184.79V151.676L181.37 150.815C179.311 137.385 181.944 123.409 189.357 112.529C192.819 107.447 197.51 102.662 203.86 99.2042C203.935 99.163 204.01 99.1232 204.086 99.082C217.024 92.1105 232.292 92.1105 245.23 99.082C245.306 99.1232 245.381 99.163 245.457 99.2042C251.845 102.683 256.553 107.505 260.021 112.619C267.391 123.49 270 137.431 267.945 150.823L267.814 151.677V184.792C271.189 184.792 273.926 181.768 273.926 178.037V144.448C273.924 114.476 252.371 90.085 225.465 89.1371Z" fill="#76BCEB"/>
<path d="M594.925 209.526H515.464V336.544H594.925V209.526Z" fill="#EBF1F6"/>
<path d="M586.347 228.156H524.04V230.967H586.347V228.156Z" fill="#3498DB"/>
<path d="M586.347 241.061H524.04V243.873H586.347V241.061Z" fill="#3498DB"/>
<path d="M586.347 253.968H524.04V256.779H586.347V253.968Z" fill="#3498DB"/>
<path d="M586.347 266.873H524.04V269.684H586.347V266.873Z" fill="#3498DB"/>
<path d="M586.347 279.778H524.04V282.59H586.347V279.778Z" fill="#3498DB"/>
<path d="M586.347 292.685H524.04V295.496H586.347V292.685Z" fill="#3498DB"/>
<path d="M586.349 324.034H524.041V324.809H586.349V324.034Z" fill="white"/>
<path d="M532.554 311.837C535.737 312.429 538.969 312.606 542.186 312.296C545.159 312.011 548.315 311.457 551.088 310.194C553.061 309.295 555.212 306.831 553.827 304.34C552.607 302.145 549.546 301.922 547.517 302.455C545.152 303.077 543.048 304.789 541.61 306.927C540.17 309.065 539.169 312.149 540.872 314.463C542.446 316.601 545.328 317.029 547.649 316.673C548.953 316.473 550.224 315.996 551.365 315.266C551.898 314.924 552.392 314.521 552.864 314.086C553.482 313.521 554.131 312.77 554.966 312.642C555.969 312.488 556.199 313.327 556.837 313.93C557.28 314.35 557.85 314.491 558.422 314.428C559.126 314.348 559.767 314.013 560.419 313.735C561.241 313.383 562.053 313.252 562.934 313.274C566.724 313.374 570.545 313.93 574.323 314.27C574.997 314.331 574.994 313.635 574.323 313.574C571.51 313.321 568.696 312.604 565.884 312.352C564.6 312.238 563.28 312.02 561.991 312.136C560.779 312.246 559.805 312.941 558.645 313.216C557.342 313.524 557.162 312.076 556.118 311.631C555.191 311.238 554.171 311.569 553.378 312.155C552.412 312.869 551.625 313.799 550.591 314.416C549.432 315.107 548.125 315.522 546.81 315.61C544.679 315.753 541.507 315.034 541.058 312.248C540.648 309.706 542.557 307.081 544.219 305.581C545.926 304.04 548.23 303.02 550.455 303.47C551.514 303.685 552.896 304.236 553.156 305.549C553.458 307.081 552.233 308.318 551.121 308.92C549.823 309.623 548.322 309.982 546.918 310.328C545.36 310.713 543.782 310.983 542.19 311.137C539.07 311.435 535.926 311.603 532.838 311.028C532.172 310.904 531.887 311.714 532.554 311.837Z" fill="#3498DB"/>
<path d="M621.485 286.626L607.517 278.249L611.622 269.883C612.511 268.073 614.559 267.401 616.197 268.383L624.234 273.204C625.872 274.186 626.479 276.45 625.591 278.26L621.485 286.626Z" fill="#EBF1F6"/>
<path d="M620.5 288.57L606.531 280.192L566.184 362.382L580.152 370.759L620.5 288.57Z" fill="#76BCEB"/>
<path d="M616.003 285.881L611.014 282.89L570.667 365.079L575.655 368.071L616.003 285.881Z" fill="#2578B0"/>
<path d="M623.973 285.873L606.679 275.501L604.865 279.196L622.159 289.568L623.973 285.873Z" fill="#F0C64B"/>
<path d="M580.164 370.797L566.195 362.42L564.778 376.428L570.312 379.747L580.164 370.797Z" fill="#EBF1F6"/>
<path d="M570.312 379.747L564.778 376.428L563.849 385.616L570.312 379.747Z" fill="#76BCEB"/>
<path d="M105.678 445.198V452.069C97.3249 452.589 90.6689 460.243 90.6689 469.604V475.451C90.6689 485.042 97.6552 492.851 106.296 493.019C109.433 511.834 124.341 526.094 142.271 526.094C162.482 526.094 178.865 507.985 178.865 485.646V445.198H105.678ZM95.8107 475.449V469.602C95.8107 463.376 100.162 458.259 105.678 457.751V485.644C105.678 486.201 105.695 486.751 105.715 487.302C100.182 486.814 95.8107 481.69 95.8107 475.449Z" fill="#76BCEB"/>
<path d="M324.868 156.348L324.861 156.346C324.672 156.329 324.475 156.318 324.275 156.318C320.381 156.318 317.213 159.82 317.213 164.125C317.213 168.429 320.381 171.931 324.275 171.931C324.475 171.931 324.669 171.922 324.852 171.904C328.491 171.573 331.337 168.156 331.337 164.125C331.337 160.094 328.495 156.678 324.868 156.348Z" fill="#76BCEB"/>
<path d="M349.617 164.126C349.617 162.778 349.141 161.51 348.277 160.555C347.414 159.601 346.266 159.076 345.046 159.076H342.431L342.162 158.098C341.811 156.823 341.345 155.582 340.779 154.409L340.344 153.508L342.195 151.462C343.977 149.493 343.977 146.288 342.195 144.319C341.332 143.365 340.184 142.839 338.963 142.839C337.742 142.839 336.595 143.365 335.732 144.317L333.881 146.363L333.066 145.882C332.004 145.255 330.882 144.741 329.728 144.354L328.846 144.057V141.166C328.846 138.774 327.306 136.691 325.186 136.215C324.888 136.149 324.58 136.115 324.276 136.115C323.056 136.115 321.908 136.641 321.045 137.594C320.182 138.55 319.707 139.817 319.707 141.166V144.057L318.824 144.354C317.671 144.741 316.548 145.256 315.487 145.882L314.672 146.363L312.821 144.317C311.04 142.349 308.139 142.349 306.358 144.317C305.496 145.271 305.021 146.54 305.021 147.89C305.021 149.24 305.496 150.507 306.359 151.461L308.21 153.507L307.775 154.408C307.207 155.581 306.742 156.822 306.391 158.097L306.122 159.074H303.506C300.987 159.074 298.937 161.34 298.937 164.125C298.937 165.473 299.413 166.742 300.276 167.696C301.139 168.65 302.286 169.175 303.506 169.175H306.122L306.391 170.151C306.742 171.426 307.207 172.667 307.775 173.84L308.21 174.741L306.359 176.787C304.577 178.756 304.577 181.961 306.359 183.931C307.222 184.883 308.369 185.409 309.591 185.409C310.812 185.409 311.959 184.883 312.822 183.929L314.673 181.883L315.488 182.364C316.549 182.991 317.672 183.505 318.825 183.894L319.708 184.191V187.082C319.708 189.867 321.758 192.133 324.278 192.133C324.573 192.133 324.873 192.1 325.166 192.037L325.306 192.005C326.139 191.793 326.899 191.327 327.508 190.653C328.371 189.698 328.847 188.431 328.847 187.082V184.191L329.73 183.894C330.883 183.507 332.006 182.991 333.067 182.364L333.882 181.883L335.733 183.931C336.594 184.882 337.742 185.406 338.964 185.406C340.187 185.406 341.335 184.882 342.196 183.929C343.058 182.975 343.533 181.706 343.533 180.357C343.533 179.008 343.058 177.739 342.195 176.785L340.344 174.741L340.779 173.84C341.347 172.667 341.811 171.424 342.163 170.151L342.432 169.175H345.048C347.566 169.177 349.617 166.911 349.617 164.126ZM333.729 173.791C331.534 176.413 328.557 178.019 325.344 178.31C325.001 178.343 324.639 178.36 324.275 178.36C317.174 178.36 311.397 171.975 311.397 164.126C311.397 156.277 317.174 149.892 324.275 149.892C324.64 149.892 325.005 149.909 325.359 149.943C328.559 150.233 331.534 151.838 333.73 154.461C335.938 157.099 337.154 160.531 337.154 164.128C337.153 167.722 335.937 171.155 333.729 173.791Z" fill="#76BCEB"/>
<path d="M520.411 384.043L520.408 384.047C520.354 384.171 520.303 384.3 520.255 384.434C519.342 387.056 520.528 390.012 522.901 391.02C525.273 392.03 527.947 390.717 528.86 388.095C528.906 387.961 528.946 387.829 528.979 387.701C529.651 385.172 528.435 382.454 526.213 381.509C523.993 380.564 521.443 381.677 520.411 384.043Z" fill="#76BCEB"/>
<path d="M530.502 369.202C529.759 368.885 528.947 368.909 528.219 369.265C527.491 369.623 526.933 370.272 526.646 371.093L526.032 372.855L525.43 372.807C524.646 372.743 523.852 372.767 523.073 372.873L522.475 372.955L521.781 371.229C521.114 369.567 519.348 368.816 517.845 369.554C517.116 369.911 516.558 370.56 516.272 371.383C515.986 372.205 516.006 373.101 516.329 373.905L517.023 375.631L516.566 376.067C515.972 376.635 515.425 377.27 514.941 377.956L514.57 378.481L512.976 377.803C511.657 377.242 510.148 377.789 509.389 379.105C509.283 379.291 509.192 379.49 509.12 379.694C508.834 380.516 508.855 381.412 509.178 382.217C509.501 383.022 510.089 383.641 510.832 383.956L512.426 384.634L512.382 385.3C512.325 386.167 512.346 387.044 512.442 387.905L512.516 388.568L510.954 389.335C509.452 390.072 508.771 392.024 509.439 393.686C509.762 394.49 510.35 395.108 511.094 395.424C511.837 395.741 512.648 395.719 513.377 395.361L514.939 394.594L515.333 395.099C515.846 395.755 516.421 396.36 517.042 396.895L517.517 397.305L516.903 399.068C516.312 400.765 517.08 402.675 518.616 403.329C519.359 403.645 520.17 403.622 520.898 403.266C521.627 402.908 522.185 402.259 522.471 401.437L523.085 399.675L523.687 399.724C524.471 399.787 525.265 399.764 526.044 399.658L526.642 399.575L527.336 401.302C528.003 402.964 529.769 403.715 531.273 402.977C532 402.62 532.559 401.97 532.846 401.147C533.132 400.326 533.112 399.43 532.788 398.624L532.094 396.898L532.551 396.462C533.145 395.894 533.693 395.259 534.176 394.573L534.548 394.048L536.142 394.727C537.677 395.38 539.406 394.531 539.997 392.833C540.066 392.635 540.118 392.426 540.153 392.212L540.168 392.111C540.246 391.5 540.168 390.879 539.938 390.31C539.615 389.505 539.027 388.887 538.284 388.572L536.69 387.893L536.734 387.228C536.79 386.361 536.77 385.484 536.674 384.623L536.6 383.96L538.162 383.193C538.888 382.837 539.446 382.186 539.733 381.364C540.02 380.541 540 379.644 539.677 378.841C539.354 378.037 538.766 377.419 538.022 377.102C537.279 376.786 536.468 376.808 535.739 377.165L534.179 377.932L533.784 377.427C533.27 376.771 532.695 376.166 532.076 375.631L531.6 375.221L532.214 373.459C532.804 371.767 532.037 369.855 530.502 369.202ZM532.104 382.167C533.035 384.26 533.22 386.642 532.628 388.874C532.566 389.114 532.49 389.361 532.405 389.605C530.739 394.386 525.865 396.78 521.539 394.939C517.213 393.097 515.048 387.709 516.714 382.928C516.799 382.682 516.895 382.441 516.996 382.211C517.907 380.124 519.489 378.498 521.45 377.635C523.421 376.766 525.598 376.753 527.58 377.597C529.561 378.437 531.168 380.062 532.104 382.167Z" fill="#76BCEB"/>
<path fill-rule="evenodd" clip-rule="evenodd" d="M147.256 400.717C151.019 397.545 156.425 396.751 160.636 399.151C165.293 401.804 167.926 408.347 166.271 413.844C165.12 417.668 161.877 420.527 158.343 421.279C158.432 424.759 157.76 428.266 156.329 431.371C156.063 431.949 155.772 432.512 155.457 433.058C154.232 422.817 152.265 412.815 148.396 403.394C148.024 402.488 147.644 401.596 147.256 400.717ZM114.771 398.423C112.219 400.793 110.088 403.646 108.885 407.055C106.965 412.489 108.04 419.495 112.388 422.801C114.154 424.143 116.405 424.522 118.518 424.13C118.739 425.597 119.201 427.01 119.926 428.261C119.633 427.376 119.368 426.48 119.139 425.568C118.193 421.793 117.888 417.81 117.584 413.847C117.172 408.48 116.764 403.15 114.771 398.423Z" fill="#EBF1F6"/>
</g>
<defs>
<filter id="filter0_d_233_6240" x="0" y="0" width="676" height="616" filterUnits="userSpaceOnUse" color-interpolation-filters="sRGB">
<feFlood flood-opacity="0" result="BackgroundImageFix"/>
<feColorMatrix in="SourceAlpha" type="matrix" values="0 0 0 0 0 0 0 0 0 0 0 0 0 0 0 0 0 0 127 0" result="hardAlpha"/>
<feOffset dy="4"/>
<feGaussianBlur stdDeviation="25"/>
<feComposite in2="hardAlpha" operator="out"/>
<feColorMatrix type="matrix" values="0 0 0 0 0.203922 0 0 0 0 0.596078 0 0 0 0 0.858824 0 0 0 0.1 0"/>
<feBlend mode="normal" in2="BackgroundImageFix" result="effect1_dropShadow_233_6240"/>
<feBlend mode="normal" in="SourceGraphic" in2="effect1_dropShadow_233_6240" result="shape"/>
</filter>
</defs>
</svg>
