<svg width="24" height="24" viewBox="0 0 24 24" fill="none" xmlns="http://www.w3.org/2000/svg">
<g id="layers-three-01">
<path id="Icon" d="M12.0001 22L16.8212 12.3578C16.8868 12.2266 16.9196 12.161 16.9325 12.0922C16.9439 12.0313 16.9439 11.9687 16.9325 11.9078C16.9196 11.839 16.8868 11.7734 16.8212 11.6422L12.0001 2M17.0001 22L21.8212 12.3578C21.8868 12.2266 21.9196 12.161 21.9325 12.0922C21.9439 12.0313 21.9439 11.9687 21.9325 11.9078C21.9196 11.839 21.8868 11.7734 21.8212 11.6422L17.0001 2M7.00006 22L2.17895 12.3578C2.11336 12.2266 2.08056 12.161 2.06766 12.0922C2.05622 12.0313 2.05622 11.9687 2.06766 11.9078C2.08056 11.839 2.11336 11.7734 2.17895 11.6422L7.00006 2L11.8212 11.6422C11.8868 11.7734 11.9196 11.839 11.9325 11.9078C11.9439 11.9687 11.9439 12.0313 11.9325 12.0922C11.9196 12.161 11.8868 12.2266 11.8212 12.3578L7.00006 22Z" stroke="#667085" stroke-width="2" stroke-linecap="round" stroke-linejoin="round"/>
</g>
</svg>
