<svg width="28" height="28" viewBox="0 0 28 28" fill="none" xmlns="http://www.w3.org/2000/svg">
<path d="M14 25.6668C20.4434 25.6668 25.6667 20.4435 25.6667 14.0002C25.6667 7.55684 20.4434 2.3335 14 2.3335C7.55672 2.3335 2.33337 7.55684 2.33337 14.0002C2.33337 20.4435 7.55672 25.6668 14 25.6668Z" stroke="#3498DB" stroke-width="1.5" stroke-linecap="round" stroke-linejoin="round"/>
<path d="M11.0834 10.4597C11.0834 9.90289 11.0834 9.62447 11.1997 9.46904C11.3011 9.33358 11.4564 9.24884 11.6251 9.23678C11.8188 9.22295 12.053 9.37351 12.5214 9.67462L18.0288 13.2151C18.4352 13.4764 18.6385 13.607 18.7086 13.7731C18.77 13.9183 18.77 14.0821 18.7086 14.2272C18.6385 14.3933 18.4352 14.524 18.0288 14.7853L12.5214 18.3257C12.053 18.6268 11.8188 18.7774 11.6251 18.7635C11.4564 18.7515 11.3011 18.6667 11.1997 18.5313C11.0834 18.3759 11.0834 18.0974 11.0834 17.5406V10.4597Z" stroke="#3498DB" stroke-width="1.5" stroke-linecap="round" stroke-linejoin="round"/>
</svg>
