<svg width="14" height="14" viewBox="0 0 14 14" fill="none" xmlns="http://www.w3.org/2000/svg">
<path d="M6.15507 4.52826L9.30213 6.55137C9.53439 6.70068 9.65052 6.77533 9.69063 6.87026C9.72568 6.9532 9.72568 7.0468 9.69063 7.12974C9.65052 7.22467 9.53439 7.29932 9.30213 7.44863L6.15507 9.47174C5.88742 9.6438 5.75359 9.72984 5.64292 9.72193C5.54648 9.71504 5.45778 9.66662 5.39983 9.58922C5.33333 9.5004 5.33333 9.3413 5.33333 9.02311V4.97689C5.33333 4.6587 5.33333 4.4996 5.39983 4.41078C5.45778 4.33338 5.54648 4.28496 5.64292 4.27807C5.75359 4.27016 5.88742 4.3562 6.15507 4.52826Z" fill="#3498DB" stroke="#3498DB" stroke-linecap="round" stroke-linejoin="round"/>
</svg>
