<?xml version="1.0" encoding="UTF-8"?>
<svg version="1.1" xmlns="http://www.w3.org/2000/svg" width="2048" height="2045">
<path d="M0 0 C4.98942895 0.00916384 9.97838865 0.00230463 14.96777344 -0.02050781 C44.05952573 -0.15279253 72.77318614 0.45630949 101.70485973 3.65466785 C108.90821548 4.44999336 116.12184454 5.10094587 123.34323978 5.70976925 C131.08164204 6.38332036 138.72191114 7.51054316 146.39086914 8.72729492 C150.69077044 9.40372347 154.9974731 9.94315018 159.32055664 10.44604492 C165.90656924 11.24193768 172.36208341 12.36873282 178.86352539 13.66479492 C182.28580458 14.32883205 185.72031996 14.85405881 189.16821289 15.36791992 C196.26134416 16.44435114 203.28767321 17.78243258 210.32055664 19.19604492 C210.96341614 19.3247699 211.60627563 19.45349487 212.26861572 19.58612061 C225.28632528 22.20071518 238.18845222 25.2326544 251.07055664 28.44604492 C252.54958742 28.80987901 254.02874178 29.17321134 255.50805664 29.53588867 C259.36730697 30.4860882 263.22036324 31.45982923 267.07055664 32.44604492 C268.27446045 32.75372803 268.27446045 32.75372803 269.50268555 33.06762695 C272.08899783 33.73092161 274.67374303 34.40000859 277.25805664 35.07104492 C278.06098145 35.27737549 278.86390625 35.48370605 279.69116211 35.69628906 C283.6171128 36.72387849 287.30990877 37.90701266 291.07055664 39.44604492 C292.83380316 39.91318374 294.60560735 40.3487511 296.38305664 40.75854492 C303.35258584 42.45614138 310.15602395 44.60270942 316.98413086 46.78442383 C319.07348657 47.44697402 321.16672106 48.09533896 323.26196289 48.73901367 C329.942221 50.79356906 336.57498894 52.91598235 343.12524414 55.36010742 C345.37459354 56.18944314 347.62679424 56.9947195 349.89086914 57.78198242 C362.91640594 62.31134453 375.73757591 67.3049825 388.53759766 72.43286133 C391.000119 73.41786986 393.46467444 74.39759403 395.92993164 75.37573242 C405.70714267 79.26097816 415.43038278 83.23004199 425.07055664 87.44604492 C425.95485352 87.82631836 426.83915039 88.2065918 427.75024414 88.59838867 C431.71796845 90.32207218 435.36573004 92.20364987 439.07055664 94.44604492 C440.71129145 95.16032128 442.35312464 95.87221271 444.0012207 96.56933594 C455.21502791 101.32025402 466.1571224 106.26104979 476.64086914 112.47729492 C480.42388945 114.64886922 484.27954539 116.59163894 488.19555664 118.50854492 C494.02124842 121.36510729 499.6233601 124.45859047 505.19555664 127.78979492 C508.1847777 129.51184618 511.22306843 131.0532757 514.32055664 132.57104492 C520.24243148 135.47786599 525.66935694 138.82891043 531.13305664 142.50854492 C533.75026548 144.23478905 536.41944481 145.7807416 539.15258789 147.31323242 C542.07719934 149.04059967 544.86493915 150.96159113 547.66430664 152.88354492 C550.14485535 154.49429084 552.69384767 155.95073083 555.26782227 157.40600586 C568.59690732 165.09586262 581.42871284 174.08090116 593.97290039 182.98120117 C595.85202843 184.29344142 597.75979953 185.53241571 599.69555664 186.75854492 C600.47930664 187.31541992 601.26305664 187.87229492 602.07055664 188.44604492 C602.07055664 189.10604492 602.07055664 189.76604492 602.07055664 190.44604492 C602.6184082 190.53112305 603.16625977 190.61620117 603.73071289 190.70385742 C606.82758779 191.68617167 608.92215448 193.36278892 611.50805664 195.32104492 C614.24445366 197.38380874 616.89836888 199.34509894 619.85571289 201.07885742 C622.07055664 202.44604492 622.07055664 202.44604492 623.07055664 204.44604492 C625.08725491 205.57955026 625.08725491 205.57955026 627.07055664 206.44604492 C627.07055664 207.10604492 627.07055664 207.76604492 627.07055664 208.44604492 C627.74473633 208.65616211 628.41891602 208.8662793 629.11352539 209.08276367 C633.06701149 210.90544088 636.06236865 213.4734911 639.38305664 216.25854492 C640.79961148 217.42795123 642.21628171 218.59721777 643.63305664 219.76635742 C644.72360352 220.6717627 644.72360352 220.6717627 645.83618164 221.59545898 C649.50043853 224.63032209 653.19168031 227.63178036 656.88305664 230.63354492 C657.55828369 231.1856665 658.23351074 231.73778809 658.92919922 232.30664062 C659.55979248 232.82057373 660.19038574 233.33450684 660.84008789 233.86401367 C661.66923706 234.54113403 661.66923706 234.54113403 662.51513672 235.23193359 C663.98007403 236.37541708 665.52428663 237.41519825 667.07055664 238.44604492 C667.07055664 239.10604492 667.07055664 239.76604492 667.07055664 240.44604492 C668.15336914 240.78635742 668.15336914 240.78635742 669.25805664 241.13354492 C671.97461057 242.40127009 673.45827968 243.70676982 675.46899414 245.87963867 C678.41935105 248.76523165 681.78252288 251.1750352 685.05883789 253.67651367 C685.72270508 254.26045898 686.38657227 254.8444043 687.07055664 255.44604492 C687.07055664 256.10604492 687.07055664 256.76604492 687.07055664 257.44604492 C687.65393799 257.70724121 688.23731934 257.9684375 688.83837891 258.23754883 C691.20525731 259.51897157 692.84649337 260.92174469 694.78540039 262.78198242 C695.47182617 263.43424805 696.15825195 264.08651367 696.86547852 264.75854492 C697.5725293 265.43916992 698.27958008 266.11979492 699.00805664 266.82104492 C700.41136854 268.16390251 701.81627788 269.50509304 703.22290039 270.84448242 C704.21265869 271.78759277 704.21265869 271.78759277 705.22241211 272.74975586 C706.77415822 274.1740005 708.4159439 275.49926096 710.07446289 276.79760742 C710.73317383 277.3415918 711.39188477 277.88557617 712.07055664 278.44604492 C712.07055664 279.10604492 712.07055664 279.76604492 712.07055664 280.44604492 C713.02961914 280.84823242 713.02961914 280.84823242 714.00805664 281.25854492 C716.07055664 282.44604492 716.07055664 282.44604492 717.07055664 285.44604492 C717.73055664 285.77604492 718.39055664 286.10604492 719.07055664 286.44604492 C719.73055664 286.77604492 720.39055664 287.10604492 721.07055664 287.44604492 C721.40055664 288.43604492 721.73055664 289.42604492 722.07055664 290.44604492 C722.73055664 290.77604492 723.39055664 291.10604492 724.07055664 291.44604492 C724.73055664 291.77604492 725.39055664 292.10604492 726.07055664 292.44604492 C726.40055664 293.43604492 726.73055664 294.42604492 727.07055664 295.44604492 C727.64805664 295.56979492 728.22555664 295.69354492 728.82055664 295.82104492 C732.21786551 296.76474183 733.80873404 298.81744028 736.07055664 301.44604492 C736.41283081 302.77711114 736.74807407 304.11004571 737.07055664 305.44604492 C738.38702783 306.14542024 739.72077815 306.81333626 741.07055664 307.44604492 C741.40055664 308.43604492 741.73055664 309.42604492 742.07055664 310.44604492 C742.73055664 310.77604492 743.39055664 311.10604492 744.07055664 311.44604492 C744.73055664 311.77604492 745.39055664 312.10604492 746.07055664 312.44604492 C746.40055664 313.43604492 746.73055664 314.42604492 747.07055664 315.44604492 C747.73055664 315.77604492 748.39055664 316.10604492 749.07055664 316.44604492 C749.73055664 316.77604492 750.39055664 317.10604492 751.07055664 317.44604492 C751.40055664 318.43604492 751.73055664 319.42604492 752.07055664 320.44604492 C753.40215237 321.11617553 754.73580387 321.78222472 756.07055664 322.44604492 C758.11352539 324.47729492 758.11352539 324.47729492 760.25805664 326.94604492 C761.0430957 327.8406543 761.82813477 328.73526367 762.63696289 329.65698242 C763.44004883 330.57737305 764.24313477 331.49776367 765.07055664 332.44604492 C766.60935487 334.15696248 768.15094632 335.86537267 769.69555664 337.57104492 C775.09379195 343.57012729 780.41739642 349.63272229 785.64868164 355.77807617 C786.61052692 356.90639467 787.5795092 358.02866167 788.55493164 359.14526367 C792.07055664 363.22378369 792.07055664 363.22378369 792.07055664 365.44604492 C793.06055664 365.77604492 794.05055664 366.10604492 795.07055664 366.44604492 C796.82326497 368.49481885 798.45564714 370.54321214 800.07055664 372.69604492 C803.86195822 377.64854732 807.7444392 382.4752463 811.82055664 387.19604492 C824.07055664 401.48301644 824.07055664 401.48301644 824.07055664 405.44604492 C825.06055664 405.77604492 826.05055664 406.10604492 827.07055664 406.44604492 C828.11937224 408.08243229 829.11001359 409.7563305 830.07055664 411.44604492 C832.02239337 414.07209123 834.00561902 416.66879157 836.01782227 419.2487793 C839.07055664 423.23387589 839.07055664 423.23387589 839.07055664 425.44604492 C839.73055664 425.44604492 840.39055664 425.44604492 841.07055664 425.44604492 C841.40055664 427.09604492 841.73055664 428.74604492 842.07055664 430.44604492 C843.06055664 430.77604492 844.05055664 431.10604492 845.07055664 431.44604492 C846.78930664 433.55541992 846.78930664 433.55541992 848.57055664 436.19604492 C849.15836914 437.05713867 849.74618164 437.91823242 850.35180664 438.80541992 C851.4284789 440.45958003 852.47983947 442.13080658 853.49243164 443.82495117 C855.50241174 447.16330921 857.6542366 450.39517209 859.82055664 453.63354492 C860.4820874 454.62547852 860.4820874 454.62547852 861.15698242 455.63745117 C863.70343125 459.44370256 866.29498849 463.21115343 868.94555664 466.94604492 C871.57862112 470.67312915 873.87496937 474.44693954 876.07055664 478.44604492 C876.64805664 479.37416992 877.22555664 480.30229492 877.82055664 481.25854492 C879.07055664 483.44604492 879.07055664 483.44604492 879.07055664 485.44604492 C879.73055664 485.44604492 880.39055664 485.44604492 881.07055664 485.44604492 C881.45147461 486.2252832 881.45147461 486.2252832 881.84008789 487.02026367 C883.40768235 490.19655057 884.9773503 493.29292022 886.82055664 496.32104492 C888.07055664 498.44604492 888.07055664 498.44604492 888.07055664 500.44604492 C888.73055664 500.44604492 889.39055664 500.44604492 890.07055664 500.44604492 C890.61583008 501.46311523 890.61583008 501.46311523 891.17211914 502.50073242 C893.68550938 507.15372667 896.22979841 511.75791636 899.00805664 516.25854492 C901.71850332 520.71494167 904.0351649 525.31310726 906.32641602 529.99658203 C908.69690157 534.80017217 911.32187035 539.42437842 914.01708984 544.05444336 C917.66921811 550.38655697 920.88701549 556.92162029 924.10473633 563.48217773 C925.63965963 566.60324018 927.1997214 569.71162648 928.75805664 572.82104492 C929.6069043 574.52067383 929.6069043 574.52067383 930.47290039 576.25463867 C931.48170274 578.26977686 932.49423015 580.28305845 933.51196289 582.29370117 C935.86655983 586.95369453 938.05504507 591.62634335 940.07055664 596.44604492 C940.67177652 597.80152247 941.27621066 599.15557682 941.88305664 600.50854492 C943.63281757 604.42881081 945.3247703 608.3717962 947.00805664 612.32104492 C948.82484126 616.57998976 950.6834389 620.80889664 952.63305664 625.00854492 C954.88697403 629.92553032 956.83960232 634.92611242 958.75024414 639.98510742 C960.16712781 643.69918709 961.64457882 647.38529032 963.13305664 651.07104492 C965.16178543 656.11490195 967.10820798 661.17798101 968.93774414 666.29760742 C969.86727613 668.88106531 970.8117954 671.45754737 971.76586914 674.03198242 C972.07274658 674.86052734 972.37962402 675.68907227 972.69580078 676.54272461 C973.3033944 678.18175549 973.91189931 679.82044896 974.52148438 681.45874023 C976.20532998 686.0091608 977.8049312 690.57721936 979.32226562 695.18579102 C980.08067865 697.47661901 980.86210189 699.75849774 981.64868164 702.03979492 C985.35577779 712.8783013 988.66676503 723.77660498 991.6730957 734.83081055 C993.10328449 740.07767715 994.63963991 745.24399172 996.39624023 750.39038086 C997.42857447 753.53746786 998.22093472 756.72999311 999.00805664 759.94604492 C999.17354004 760.61748535 999.33902344 761.28892578 999.50952148 761.98071289 C1000.41228205 765.66407812 1001.28570193 769.35382563 1002.14477539 773.04760742 C1002.32081299 773.80364258 1002.49685059 774.55967773 1002.67822266 775.33862305 C1003.01389148 776.7871156 1003.3465906 778.23630077 1003.67578125 779.6862793 C1004.37259101 782.70908026 1005.13787623 785.64576798 1006.12915039 788.58666992 C1007.35295447 792.30378439 1007.85308129 795.99674979 1008.41040039 799.86010742 C1008.98618293 802.9877309 1009.696036 806.01085743 1010.48071289 809.09057617 C1012.03366142 815.19660546 1013.34649782 821.32903008 1014.57055664 827.50854492 C1014.78558838 828.58765137 1015.00062012 829.66675781 1015.22216797 830.77856445 C1016.8093582 838.85717771 1018.18382478 846.95178562 1019.39477539 855.09448242 C1019.87845526 858.32736278 1020.45371555 861.53451557 1021.05883789 864.74682617 C1022.12961647 870.55976816 1022.87479841 876.39047415 1023.57055664 882.25854492 C1024.32918478 888.5818355 1025.12869341 894.88929826 1026.07055664 901.18823242 C1027.20255337 909.02235994 1027.90619595 916.87498103 1028.57055664 924.75854492 C1028.68870913 926.1212044 1028.80719865 927.4838347 1028.92602539 928.84643555 C1029.17048918 931.66239252 1029.40689138 934.47888346 1029.63825989 937.29594421 C1029.93227048 940.84930161 1030.24797641 944.40006317 1030.57377625 947.95063782 C1031.90014395 962.82643324 1032.3820979 977.57103837 1032.37133789 992.50073242 C1032.37524655 994.82496209 1032.37958545 997.14919107 1032.38432312 999.47341919 C1032.39170894 1004.30871917 1032.39155173 1009.14394605 1032.38623047 1013.97924805 C1032.38160952 1018.85596973 1032.38849008 1023.73244143 1032.40673828 1028.60913086 C1032.50498436 1055.08904707 1032.33813192 1081.29651507 1029.46763611 1107.64093018 C1028.86969737 1113.37082982 1028.39534002 1119.11008468 1027.91619873 1124.85092163 C1026.95015146 1136.41234593 1025.73901097 1147.8715783 1023.75415039 1159.30541992 C1023.01754896 1163.58558957 1022.53401158 1167.87905702 1022.07055664 1172.19604492 C1021.34654459 1178.83167283 1020.17229466 1185.2903328 1018.78930664 1191.82495117 C1018.07973392 1195.3998094 1017.54954301 1198.9586894 1017.07055664 1202.57104492 C1016.31365196 1208.15087113 1015.18668579 1213.53942175 1013.85961914 1219.00854492 C1012.66485865 1224.21344212 1011.74907466 1229.46208456 1010.81665039 1234.71948242 C1010.08592726 1238.36927228 1009.10355859 1241.87219142 1008.07055664 1245.44604492 C1007.7301712 1247.19083546 1007.41569825 1248.94097513 1007.13305664 1250.69604492 C1006.31301138 1255.4096909 1005.18482657 1259.95448441 1003.85180664 1264.54760742 C1003.21740022 1266.90125525 1002.67023876 1269.23677947 1002.15649414 1271.61791992 C1001.01804605 1276.82086534 999.61859259 1281.93980581 998.19555664 1287.07104492 C997.65736387 1289.02405083 997.11960439 1290.97717619 996.58227539 1292.93041992 C996.32236816 1293.8746582 996.06246094 1294.81889648 995.79467773 1295.79174805 C994.83900996 1299.29478921 993.92385343 1302.8073756 993.00805664 1306.32104492 C989.71540863 1318.68196943 985.66401676 1330.79928133 981.56933594 1342.91333008 C979.86485886 1347.97439867 978.2662427 1353.05176783 976.77905273 1358.18115234 C975.79973506 1361.31179674 974.55697553 1364.30938476 973.30883789 1367.34057617 C970.99915068 1373.13300938 968.89828561 1379.00482948 966.75415039 1384.86010742 C966.19298349 1386.38876464 965.63178634 1387.91741076 965.07055664 1389.44604492 C964.66861084 1390.54879761 964.66861084 1390.54879761 964.25854492 1391.67382812 C963.02776317 1395.01579076 961.77380719 1398.25382204 960.07055664 1401.38354492 C958.27292502 1404.87667001 957.03062856 1408.38727583 955.83227539 1412.12182617 C953.24376984 1420.02008669 949.70326017 1427.37229539 945.88818359 1434.73730469 C944.40840041 1437.62161575 943.1009279 1440.35481204 942.07446289 1443.43823242 C940.55758727 1447.98295703 938.28402495 1452.1045234 936.08032227 1456.34838867 C934.05409658 1460.30925922 932.36080827 1464.25037887 930.85009766 1468.43286133 C929.4795728 1471.97227504 927.7372226 1475.3211236 926.00805664 1478.69604492 C925.48115234 1479.73631836 925.48115234 1479.73631836 924.94360352 1480.79760742 C924.27647775 1482.11420344 923.60780531 1483.43001743 922.93725586 1484.74487305 C921.97160312 1486.64027257 921.01794368 1488.54145337 920.07055664 1490.44604492 C919.41055664 1490.44604492 918.75055664 1490.44604492 918.07055664 1490.44604492 C917.54461914 1492.30229492 917.54461914 1492.30229492 917.00805664 1494.19604492 C915.27702837 1499.45570774 912.58256617 1503.94910039 909.69165039 1508.64916992 C908.20720363 1511.21028771 907.12723872 1513.68948298 906.07055664 1516.44604492 C905.12620011 1518.13937388 904.17886822 1519.83133732 903.19946289 1521.50463867 C901.9974938 1523.57169278 900.84545255 1525.6621109 899.69555664 1527.75854492 C895.14133791 1535.96721273 890.17239915 1543.9279206 885.23071289 1551.90698242 C883.66302739 1554.45565129 882.13779558 1557.026069 880.62915039 1559.61010742 C880.22349854 1560.30080322 879.81784668 1560.99149902 879.39990234 1561.703125 C878.60712025 1563.05614191 877.82032314 1564.41268639 877.04003906 1565.77294922 C876.10486894 1567.36406207 875.09430289 1568.91042555 874.07055664 1570.44604492 C873.41055664 1570.44604492 872.75055664 1570.44604492 872.07055664 1570.44604492 C871.74055664 1572.09604492 871.41055664 1573.74604492 871.07055664 1575.44604492 C870.41055664 1575.44604492 869.75055664 1575.44604492 869.07055664 1575.44604492 C868.69930664 1576.77635742 868.69930664 1576.77635742 868.32055664 1578.13354492 C867.0132598 1581.59788154 865.44522426 1583.63961956 863.07055664 1586.44604492 C862.06810073 1588.11123558 861.06839784 1589.77808488 860.07055664 1591.44604492 C858.3045336 1593.9987152 856.49947537 1596.52052179 854.69165039 1599.04370117 C853.28321838 1601.1308956 852.12869182 1603.16657957 851.07055664 1605.44604492 C850.41055664 1605.44604492 849.75055664 1605.44604492 849.07055664 1605.44604492 C848.82305664 1606.16791992 848.57555664 1606.88979492 848.32055664 1607.63354492 C846.95102449 1610.71499227 845.21058642 1612.85206943 843.07055664 1615.44604492 C841.46717328 1618.0114583 839.97724441 1620.61400693 838.50805664 1623.25854492 C837.79649414 1624.34135742 837.79649414 1624.34135742 837.07055664 1625.44604492 C836.41055664 1625.44604492 835.75055664 1625.44604492 835.07055664 1625.44604492 C834.82305664 1625.98229492 834.57555664 1626.51854492 834.32055664 1627.07104492 C832.76403127 1630.02844312 831.03619991 1632.74328543 829.07055664 1635.44604492 C828.41055664 1635.44604492 827.75055664 1635.44604492 827.07055664 1635.44604492 C826.96743164 1636.04416992 826.86430664 1636.64229492 826.75805664 1637.25854492 C825.97143808 1639.76142216 824.93509833 1640.65919247 823.07055664 1642.44604492 C822.74055664 1643.43604492 822.41055664 1644.42604492 822.07055664 1645.44604492 C821.41055664 1645.44604492 820.75055664 1645.44604492 820.07055664 1645.44604492 C819.82305664 1645.98874023 819.57555664 1646.53143555 819.32055664 1647.09057617 C817.79614889 1649.96313203 815.98136487 1652.5026711 814.07055664 1655.13354492 C813.36930664 1656.10678711 812.66805664 1657.0800293 811.94555664 1658.08276367 C810.07055664 1660.44604492 810.07055664 1660.44604492 808.07055664 1661.44604492 C807.76118164 1662.06479492 807.45180664 1662.68354492 807.13305664 1663.32104492 C806.00235858 1665.58244105 804.85580624 1666.6689658 803.07055664 1668.44604492 C801.59680114 1670.20406413 800.14002145 1671.976381 798.69555664 1673.75854492 C797.50639648 1675.21647461 797.50639648 1675.21647461 796.29321289 1676.70385742 C795.00200174 1678.29688066 793.71555735 1679.8938378 792.44165039 1681.50073242 C791.35987408 1682.85053092 790.22193488 1684.15510568 789.07055664 1685.44604492 C788.41055664 1685.44604492 787.75055664 1685.44604492 787.07055664 1685.44604492 C786.96743164 1686.06479492 786.86430664 1686.68354492 786.75805664 1687.32104492 C786.07055664 1689.44604492 786.07055664 1689.44604492 783.07055664 1691.44604492 C782.78180664 1692.04416992 782.49305664 1692.64229492 782.19555664 1693.25854492 C780.66918056 1696.22649841 778.45153075 1698.12176067 776.07055664 1700.44604492 C775.34868164 1701.37416992 774.62680664 1702.30229492 773.88305664 1703.25854492 C772.98586914 1704.34135742 772.98586914 1704.34135742 772.07055664 1705.44604492 C771.41055664 1705.44604492 770.75055664 1705.44604492 770.07055664 1705.44604492 C769.6811792 1706.31869995 769.6811792 1706.31869995 769.28393555 1707.20898438 C767.98229974 1709.60876081 766.54511685 1711.27267706 764.65649414 1713.23901367 C763.98118652 1713.94807861 763.30587891 1714.65714355 762.61010742 1715.38769531 C761.89580566 1716.12882568 761.18150391 1716.86995605 760.44555664 1717.63354492 C758.99134642 1719.15594655 757.5382101 1720.67937474 756.08618164 1722.20385742 C755.39073242 1722.93378906 754.6952832 1723.6637207 753.97875977 1724.41577148 C751.03373278 1727.5491958 748.22518282 1730.78730669 745.45336914 1734.07495117 C744.07055664 1735.44604492 744.07055664 1735.44604492 742.07055664 1735.44604492 C741.66836914 1736.40510742 741.66836914 1736.40510742 741.25805664 1737.38354492 C740.07055664 1739.44604492 740.07055664 1739.44604492 737.07055664 1740.44604492 C736.74055664 1741.10604492 736.41055664 1741.76604492 736.07055664 1742.44604492 C735.74055664 1743.10604492 735.41055664 1743.76604492 735.07055664 1744.44604492 C734.08055664 1744.77604492 733.09055664 1745.10604492 732.07055664 1745.44604492 C731.74055664 1746.10604492 731.41055664 1746.76604492 731.07055664 1747.44604492 C730.74055664 1748.10604492 730.41055664 1748.76604492 730.07055664 1749.44604492 C729.08055664 1749.77604492 728.09055664 1750.10604492 727.07055664 1750.44604492 C726.74055664 1751.10604492 726.41055664 1751.76604492 726.07055664 1752.44604492 C725.74055664 1753.10604492 725.41055664 1753.76604492 725.07055664 1754.44604492 C724.08055664 1754.77604492 723.09055664 1755.10604492 722.07055664 1755.44604492 C721.74055664 1756.43604492 721.41055664 1757.42604492 721.07055664 1758.44604492 C719.46899414 1760.02416992 719.46899414 1760.02416992 717.44555664 1761.69604492 C714.70195787 1764.01980473 712.08383868 1766.37485316 709.57055664 1768.94604492 C705.11588529 1773.47190965 700.36341624 1777.63308617 695.38305664 1781.57104492 C692.97514932 1783.45702372 692.97514932 1783.45702372 690.63305664 1785.88354492 C688.73586199 1787.78073957 686.89231648 1789.45240329 684.82055664 1791.13354492 C682.0531347 1793.15027712 682.0531347 1793.15027712 681.07055664 1795.44604492 C680.08055664 1795.77604492 679.09055664 1796.10604492 678.07055664 1796.44604492 C677.38993164 1797.12666992 676.70930664 1797.80729492 676.00805664 1798.50854492 C675.36868164 1799.14791992 674.72930664 1799.78729492 674.07055664 1800.44604492 C673.41055664 1800.44604492 672.75055664 1800.44604492 672.07055664 1800.44604492 C671.74055664 1801.43604492 671.41055664 1802.42604492 671.07055664 1803.44604492 C668.99633789 1805.31323242 668.99633789 1805.31323242 666.38305664 1807.32104492 C665.47942383 1808.02487305 664.57579102 1808.72870117 663.64477539 1809.45385742 C662.7952832 1810.1112793 661.94579102 1810.76870117 661.07055664 1811.44604492 C658.2096881 1813.74678551 655.4461712 1816.05969851 652.88305664 1818.69604492 C651.07055664 1820.44604492 651.07055664 1820.44604492 648.07055664 1821.44604492 C646.72431406 1822.76634279 645.39316184 1824.10206908 644.07055664 1825.44604492 C642.15448448 1826.93241966 640.21510807 1828.38905607 638.25805664 1829.82104492 C634.71411762 1832.43578042 631.28219141 1835.06322283 628.00805664 1838.00854492 C625.07055664 1840.44604492 625.07055664 1840.44604492 622.07055664 1840.44604492 C621.74055664 1841.43604492 621.41055664 1842.42604492 621.07055664 1843.44604492 C618.41821289 1845.48901367 618.41821289 1845.48901367 615.13305664 1847.63354492 C614.0515332 1848.34897461 612.97000977 1849.0644043 611.85571289 1849.80151367 C609.07055664 1851.44604492 609.07055664 1851.44604492 607.07055664 1851.44604492 C606.74055664 1852.43604492 606.41055664 1853.42604492 606.07055664 1854.44604492 C603.78321171 1856.06829587 601.52354449 1857.55624656 599.13305664 1859.00854492 C594.33830665 1861.8767241 594.33830665 1861.8767241 590.07055664 1865.44604492 C589.08055664 1865.44604492 588.09055664 1865.44604492 587.07055664 1865.44604492 C587.07055664 1866.10604492 587.07055664 1866.76604492 587.07055664 1867.44604492 C585.39086914 1868.73510742 585.39086914 1868.73510742 583.19555664 1870.07104492 C582.11661133 1870.74006836 582.11661133 1870.74006836 581.01586914 1871.42260742 C579.07055664 1872.44604492 579.07055664 1872.44604492 577.07055664 1872.44604492 C577.07055664 1873.10604492 577.07055664 1873.76604492 577.07055664 1874.44604492 C575.42055664 1874.77604492 573.77055664 1875.10604492 572.07055664 1875.44604492 C572.07055664 1876.10604492 572.07055664 1876.76604492 572.07055664 1877.44604492 C569.98071289 1878.96166992 569.98071289 1878.96166992 567.13305664 1880.69604492 C562.73961119 1883.4101425 558.41728778 1886.19236377 554.14086914 1889.08666992 C551.8220924 1890.60918748 549.45622542 1892.03081768 547.07055664 1893.44604492 C546.30356445 1893.90624023 545.53657227 1894.36643555 544.74633789 1894.84057617 C543.07871371 1895.84115068 541.41070872 1896.84109064 539.74243164 1897.84057617 C538.02089196 1898.8750101 536.30192769 1899.91374838 534.58618164 1900.95776367 C528.5113411 1904.64329591 522.32325095 1908.07288089 516.07055664 1911.44604492 C511.88362715 1913.71725668 507.77471493 1915.97209223 503.82055664 1918.63354492 C501.07055664 1920.44604492 501.07055664 1920.44604492 498.79321289 1921.33276367 C495.58641597 1922.64400775 492.74225455 1924.31068376 489.75805664 1926.07104492 C482.67217543 1930.19155669 475.40477475 1933.86395737 468.04760742 1937.47143555 C466.08996418 1938.43647776 464.13973009 1939.41498125 462.19165039 1940.39916992 C461.5709668 1940.71233154 460.9502832 1941.02549316 460.31079102 1941.34814453 C458.62507331 1942.19945023 456.93960261 1943.05124498 455.25415039 1943.90307617 C453.05967156 1944.96665794 450.83675528 1945.97283652 448.59399414 1946.93041992 C445.06568006 1948.44814261 441.67471257 1950.13031234 438.25805664 1951.88354492 C433.41855473 1954.33887574 428.55593402 1956.54636925 423.48852539 1958.48901367 C420.84624039 1959.53482922 418.27638579 1960.69437543 415.69555664 1961.88354492 C406.31322607 1966.19148825 396.7917605 1969.9785127 387.07055664 1973.44604492 C382.55237733 1975.10739879 378.0606417 1976.83543157 373.57055664 1978.57104492 C366.99853243 1981.10111997 360.41157109 1983.59088991 353.82055664 1986.07104492 C352.8028418 1986.45534668 351.78512695 1986.83964844 350.73657227 1987.2355957 C341.50525297 1990.70260946 332.18509761 1993.75594385 322.75805664 1996.6394043 C319.12226962 1997.76325707 315.59653567 1999.01959806 312.07055664 2000.44604492 C310.23430163 2000.91345529 308.39716906 2001.37779983 306.55493164 2001.82104492 C298.86124913 2003.75656254 291.25959147 2006.05938052 283.69555664 2008.44604492 C276.87994768 2010.56094904 269.98377698 2012.27570675 263.05297852 2013.95922852 C261.22766999 2014.40746315 259.40668423 2014.87320499 257.58618164 2015.34057617 C248.96136923 2017.55327368 240.29401945 2019.57106763 231.61160278 2021.54452515 C229.63653012 2021.99354624 227.66200505 2022.44497385 225.6875 2022.89648438 C216.51655138 2024.96696714 207.3209823 2026.77793769 198.07055664 2028.44604492 C197.41871399 2028.56444733 196.76687134 2028.68284973 196.09527588 2028.80484009 C165.24830248 2034.40038872 134.3665848 2038.86160684 103.13305664 2041.63354492 C101.8043454 2041.75176605 101.8043454 2041.75176605 100.4487915 2041.87237549 C95.00115791 2042.35110577 89.55140915 2042.79250948 84.09875488 2043.21005249 C82.02299709 2043.37181968 79.94772981 2043.53997103 77.8729248 2043.71353149 C56.51541945 2045.48995144 35.25390801 2045.79028622 13.83422852 2045.76171875 C10.09289464 2045.75710631 6.35188741 2045.76396038 2.6105957 2045.78222656 C-21.56799064 2045.89915923 -45.4714406 2045.09939365 -69.56134033 2042.98751068 C-75.41265945 2042.47665743 -81.26517968 2042.06888231 -87.12767029 2041.70491028 C-99.44719582 2040.9281229 -111.54100307 2039.30606677 -123.73022461 2037.38745117 C-129.03574163 2036.55869199 -134.33707491 2035.91608837 -139.67944336 2035.38354492 C-146.35111865 2034.70831381 -152.78004369 2033.56425381 -159.34350586 2032.16479492 C-162.90650076 2031.45064344 -166.45267094 2030.92310087 -170.05444336 2030.44604492 C-175.71046827 2029.68257699 -181.1644244 2028.51166314 -186.70678711 2027.16479492 C-189.98098452 2026.43454968 -193.23364427 2025.91652413 -196.55444336 2025.44604492 C-201.60018008 2024.71829443 -206.35531338 2023.58439905 -211.24584961 2022.16479492 C-213.98448258 2021.4313037 -216.69689309 2020.91646011 -219.49194336 2020.44604492 C-223.00868721 2019.84501949 -226.33978201 2019.08144874 -229.74194336 2018.00854492 C-233.5880913 2016.79682747 -237.41659375 2015.88219559 -241.36694336 2015.07104492 C-261.33265501 2010.90522617 -280.80562844 2004.71893001 -300.24194336 1998.60229492 C-304.74392166 1997.19065766 -309.2553946 1995.81123337 -313.76928711 1994.43823242 C-320.91563415 1992.19450912 -327.97071857 1989.74092364 -334.99194336 1987.13354492 C-335.81194824 1986.83013184 -336.63195312 1986.52671875 -337.47680664 1986.21411133 C-339.96182449 1985.29357428 -342.4458575 1984.37043788 -344.92944336 1983.44604492 C-346.02893311 1983.03684814 -346.02893311 1983.03684814 -347.15063477 1982.61938477 C-362.34661276 1976.95648387 -377.5107034 1971.25573593 -392.31225586 1964.61401367 C-395.885266 1963.01949124 -399.46973149 1961.45154931 -403.05444336 1959.88354492 C-403.72378906 1959.59044434 -404.39313477 1959.29734375 -405.08276367 1958.99536133 C-409.35681917 1957.12612097 -413.64090771 1955.28180334 -417.92944336 1953.44604492 C-419.41041881 1952.80437022 -420.88986106 1952.15913127 -422.36694336 1951.50854492 C-423.0462793 1951.21077148 -423.72561523 1950.91299805 -424.42553711 1950.60620117 C-427.96691581 1948.96534396 -431.44386613 1947.20168566 -434.92944336 1945.44604492 C-436.16880183 1944.82580373 -437.40837908 1944.20599948 -438.64819336 1943.58666992 C-440.59931935 1942.61123497 -442.55031575 1941.63554462 -444.50097656 1940.65917969 C-448.0196978 1938.8984111 -451.54035972 1937.14181454 -455.06616211 1935.39526367 C-462.40773052 1931.75266207 -469.67841219 1928.02506732 -476.86694336 1924.08666992 C-479.1640852 1922.85605822 -481.46492698 1921.67702321 -483.80053711 1920.52416992 C-487.94355056 1918.46595787 -491.97084935 1916.23155519 -495.99194336 1913.94604492 C-496.66032227 1913.56834961 -497.32870117 1913.1906543 -498.01733398 1912.80151367 C-499.98971025 1911.68594226 -501.95995148 1910.5666995 -503.92944336 1909.44604492 C-504.86252319 1908.91599854 -504.86252319 1908.91599854 -505.81445312 1908.37524414 C-510.02144722 1905.97983901 -514.17966581 1903.51408387 -518.32397461 1901.01245117 C-520.02422509 1899.9902616 -521.72976527 1898.97680486 -523.44116211 1897.97338867 C-528.68311922 1894.88746416 -533.66503588 1891.56530359 -538.62084961 1888.03979492 C-541.62985435 1885.96251246 -544.73293448 1884.22188319 -547.92944336 1882.44604492 C-549.41573656 1881.58320568 -550.89485747 1880.70790577 -552.36694336 1879.82104492 C-553.0462793 1879.4162793 -553.72561523 1879.01151367 -554.42553711 1878.59448242 C-554.92182617 1878.21549805 -555.41811523 1877.83651367 -555.92944336 1877.44604492 C-555.92944336 1876.78604492 -555.92944336 1876.12604492 -555.92944336 1875.44604492 C-556.65131836 1875.36354492 -557.37319336 1875.28104492 -558.11694336 1875.19604492 C-561.52596592 1874.28697224 -563.25627512 1872.71823792 -565.92944336 1870.44604492 C-566.85756836 1869.90979492 -567.78569336 1869.37354492 -568.74194336 1868.82104492 C-569.46381836 1868.36729492 -570.18569336 1867.91354492 -570.92944336 1867.44604492 C-570.92944336 1866.78604492 -570.92944336 1866.12604492 -570.92944336 1865.44604492 C-571.46956055 1865.3609668 -572.00967773 1865.27588867 -572.56616211 1865.18823242 C-575.74918408 1864.18860569 -578.01760088 1862.49693231 -580.74194336 1860.57104492 C-581.2980127 1860.17973389 -581.85408203 1859.78842285 -582.42700195 1859.38525391 C-588.2789515 1855.24612934 -594.04858 1850.99194775 -599.81225586 1846.73120117 C-601.82011401 1845.25927508 -603.85797886 1843.82702125 -605.92944336 1842.44604492 C-605.92944336 1841.78604492 -605.92944336 1841.12604492 -605.92944336 1840.44604492 C-606.77829102 1840.30875977 -606.77829102 1840.30875977 -607.64428711 1840.16870117 C-610.52068113 1839.25907229 -612.18571701 1837.82503037 -614.49194336 1835.88354492 C-619.11045961 1832.06914534 -623.88027502 1828.55780159 -628.77709961 1825.11010742 C-630.92944336 1823.44604492 -630.92944336 1823.44604492 -631.92944336 1821.44604492 C-632.54819336 1821.13666992 -633.16694336 1820.82729492 -633.80444336 1820.50854492 C-636.00154243 1819.40999538 -637.24715529 1818.20480063 -638.92944336 1816.44604492 C-639.58944336 1816.11604492 -640.24944336 1815.78604492 -640.92944336 1815.44604492 C-640.92944336 1814.78604492 -640.92944336 1814.12604492 -640.92944336 1813.44604492 C-641.47084961 1813.20885742 -642.01225586 1812.97166992 -642.57006836 1812.72729492 C-645.56194473 1811.10256735 -648.04103735 1809.09585723 -650.67944336 1806.94604492 C-651.66428711 1806.15198242 -652.64913086 1805.35791992 -653.66381836 1804.53979492 C-654.41147461 1803.84885742 -655.15913086 1803.15791992 -655.92944336 1802.44604492 C-655.92944336 1801.78604492 -655.92944336 1801.12604492 -655.92944336 1800.44604492 C-656.54819336 1800.34291992 -657.16694336 1800.23979492 -657.80444336 1800.13354492 C-659.92944336 1799.44604492 -659.92944336 1799.44604492 -661.92944336 1796.44604492 C-662.91944336 1796.11604492 -663.90944336 1795.78604492 -664.92944336 1795.44604492 C-666.61878258 1793.80236352 -668.2820426 1792.13175732 -669.92944336 1790.44604492 C-671.41444336 1789.20854492 -671.41444336 1789.20854492 -672.92944336 1787.94604492 C-676.34882804 1785.09655768 -679.40938872 1782.00353933 -682.51538086 1778.82104492 C-686.18476974 1775.10184534 -689.9808761 1771.62219113 -693.94116211 1768.21557617 C-696.5437309 1765.89934108 -698.97007784 1763.434745 -701.38647461 1760.92651367 C-703.06651708 1759.22768987 -703.06651708 1759.22768987 -705.92944336 1757.44604492 C-705.92944336 1756.78604492 -705.92944336 1756.12604492 -705.92944336 1755.44604492 C-706.56881836 1755.17791992 -707.20819336 1754.90979492 -707.86694336 1754.63354492 C-709.92944336 1753.44604492 -709.92944336 1753.44604492 -710.92944336 1750.44604492 C-711.58944336 1750.11604492 -712.24944336 1749.78604492 -712.92944336 1749.44604492 C-714.92944336 1748.44604492 -714.92944336 1748.44604492 -715.92944336 1745.44604492 C-716.58944336 1745.11604492 -717.24944336 1744.78604492 -717.92944336 1744.44604492 C-719.92944336 1743.44604492 -719.92944336 1743.44604492 -720.92944336 1740.44604492 C-721.58944336 1740.11604492 -722.24944336 1739.78604492 -722.92944336 1739.44604492 C-724.92944336 1738.44604492 -724.92944336 1738.44604492 -725.92944336 1735.44604492 C-727.25761808 1734.7691593 -728.59181538 1734.10405222 -729.92944336 1733.44604492 C-731.76147461 1731.62573242 -731.76147461 1731.62573242 -733.74194336 1729.32104492 C-736.71809118 1725.91545296 -739.73373039 1722.57480396 -742.85131836 1719.29760742 C-743.53347412 1718.57976074 -744.21562988 1717.86191406 -744.91845703 1717.12231445 C-746.2927642 1715.67988256 -747.67049863 1714.24070775 -749.05175781 1712.80493164 C-749.68299561 1712.13993652 -750.3142334 1711.47494141 -750.96459961 1710.78979492 C-751.53573486 1710.19360352 -752.10687012 1709.59741211 -752.6953125 1708.9831543 C-753.92944336 1707.44604492 -753.92944336 1707.44604492 -753.92944336 1705.44604492 C-754.58944336 1705.44604492 -755.24944336 1705.44604492 -755.92944336 1705.44604492 C-757.55053711 1703.54760742 -757.55053711 1703.54760742 -759.36694336 1701.07104492 C-761.49728668 1698.17230563 -762.90042831 1696.46538829 -765.92944336 1694.44604492 C-766.25944336 1693.45604492 -766.58944336 1692.46604492 -766.92944336 1691.44604492 C-767.61006836 1690.95104492 -768.29069336 1690.45604492 -768.99194336 1689.94604492 C-769.63131836 1689.45104492 -770.27069336 1688.95604492 -770.92944336 1688.44604492 C-770.92944336 1687.45604492 -770.92944336 1686.46604492 -770.92944336 1685.44604492 C-771.49663086 1685.22432617 -772.06381836 1685.00260742 -772.64819336 1684.77416992 C-775.62817656 1683.0392482 -777.28240268 1680.88719865 -779.42944336 1678.19604492 C-780.21577148 1677.21249023 -781.00209961 1676.22893555 -781.81225586 1675.21557617 C-783.40011386 1673.13847041 -784.89689662 1671.08215475 -786.30444336 1668.88354492 C-787.85652669 1666.21687826 -787.85652669 1666.21687826 -790.92944336 1664.44604492 C-791.25944336 1663.45604492 -791.58944336 1662.46604492 -791.92944336 1661.44604492 C-793.23694962 1660.08737537 -794.57466652 1658.7575842 -795.92944336 1657.44604492 C-797.37028517 1655.75805141 -798.78676876 1654.04899304 -800.17944336 1652.32104492 C-800.88584961 1651.4522168 -801.59225586 1650.58338867 -802.32006836 1649.68823242 C-803.92944336 1647.44604492 -803.92944336 1647.44604492 -803.92944336 1645.44604492 C-804.58944336 1645.44604492 -805.24944336 1645.44604492 -805.92944336 1645.44604492 C-806.96733917 1643.80270988 -807.9651226 1642.13360625 -808.92944336 1640.44604492 C-809.58944336 1639.78604492 -810.24944336 1639.12604492 -810.92944336 1638.44604492 C-810.92944336 1637.45604492 -810.92944336 1636.46604492 -810.92944336 1635.44604492 C-811.91944336 1635.11604492 -812.90944336 1634.78604492 -813.92944336 1634.44604492 C-815.31616211 1632.88745117 -815.31616211 1632.88745117 -816.61694336 1631.00854492 C-817.27243164 1630.08235352 -817.27243164 1630.08235352 -817.94116211 1629.13745117 C-818.92944336 1627.44604492 -818.92944336 1627.44604492 -818.92944336 1625.44604492 C-819.58944336 1625.44604492 -820.24944336 1625.44604492 -820.92944336 1625.44604492 C-821.97841884 1623.80976004 -822.96942298 1622.13605635 -823.92944336 1620.44604492 C-825.6968939 1617.92673903 -827.49945201 1615.43571044 -829.30834961 1612.94604492 C-830.92944336 1610.44604492 -830.92944336 1610.44604492 -831.95678711 1607.69604492 C-832.27776367 1606.95354492 -832.59874023 1606.21104492 -832.92944336 1605.44604492 C-833.91944336 1605.11604492 -834.90944336 1604.78604492 -835.92944336 1604.44604492 C-836.90098342 1602.80447723 -837.86328208 1601.15620915 -838.76147461 1599.47338867 C-840.00387798 1597.31684236 -841.40683062 1595.41355206 -842.92944336 1593.44604492 C-845.17731713 1590.51818934 -847.08671462 1587.56187967 -848.85131836 1584.30932617 C-850.63027786 1581.23482007 -852.70941746 1578.36152713 -854.75756836 1575.46166992 C-855.92944336 1573.44604492 -855.92944336 1573.44604492 -855.92944336 1570.44604492 C-856.58944336 1570.44604492 -857.24944336 1570.44604492 -857.92944336 1570.44604492 C-859.19116211 1568.64526367 -859.19116211 1568.64526367 -860.61694336 1566.13354492 C-862.80122151 1562.3602177 -865.0536396 1558.66443807 -867.42944336 1555.00854492 C-870.32214611 1550.49465711 -872.92171553 1545.88092199 -875.45288086 1541.15698242 C-878.21492278 1536.08593191 -881.02337319 1530.94863582 -884.52709961 1526.34838867 C-886.09002852 1524.22820376 -886.94021209 1522.03290914 -887.92944336 1519.60620117 C-889.17437749 1516.91694894 -890.66125315 1514.42854681 -892.17944336 1511.88354492 C-895.42836938 1506.40736773 -898.29654491 1500.81042266 -901.10522461 1495.09838867 C-903.00733057 1491.2536179 -905.02277688 1487.47357041 -907.05444336 1483.69604492 C-914.4929743 1469.83881025 -914.4929743 1469.83881025 -917.34350586 1463.10620117 C-919.4519314 1458.2402043 -921.88555445 1453.56372118 -924.30834961 1448.84838867 C-925.79005588 1445.73859068 -926.85254227 1442.71053333 -927.92944336 1439.44604492 C-929.02773633 1437.01140533 -930.14658142 1434.60150155 -931.30444336 1432.19604492 C-934.07067406 1426.35464268 -936.62655575 1420.48762861 -938.92944336 1414.44604492 C-939.3406543 1413.38385742 -939.75186523 1412.32166992 -940.17553711 1411.22729492 C-941.93120124 1406.68444886 -943.67864269 1402.13938791 -945.36694336 1397.57104492 C-946.82922076 1393.65214148 -948.37874627 1389.76809079 -949.92944336 1385.88354492 C-950.17879639 1385.25786621 -950.42814941 1384.6321875 -950.68505859 1383.98754883 C-951.92219589 1380.89977749 -953.19512552 1377.83588761 -954.52319336 1374.78588867 C-955.67563259 1372.04884549 -956.62319203 1369.42171926 -957.42944336 1366.57104492 C-959.29923237 1360.15757174 -961.31605855 1353.87396907 -963.86694336 1347.69604492 C-965.82745591 1342.86902538 -967.37316343 1337.97019273 -968.86694336 1332.98120117 C-969.79515356 1329.89285472 -970.75864316 1326.81800317 -971.73657227 1323.74511719 C-975.93563431 1310.51205449 -979.52803966 1297.11099525 -983.03491211 1283.68041992 C-983.61338795 1281.58881295 -984.24823903 1279.51164382 -984.94897461 1277.45776367 C-986.02037041 1274.1667431 -986.74001834 1270.8994669 -987.42944336 1267.50854492 C-988.18611019 1263.87350228 -988.96365616 1260.32730637 -989.99194336 1256.75854492 C-990.79885569 1253.90745469 -991.36197184 1251.17247891 -991.86694336 1248.25854492 C-992.54321386 1244.36998955 -993.37070865 1240.57744465 -994.36694336 1236.75854492 C-995.78405774 1231.26185884 -996.86041089 1225.74210723 -997.87231445 1220.16040039 C-998.49892062 1216.71116933 -999.16897145 1213.29116299 -999.99194336 1209.88354492 C-1000.87817867 1206.05529893 -1001.3751848 1202.21883615 -1001.86694336 1198.32104492 C-1002.51470183 1193.1950822 -1003.35177354 1188.1861376 -1004.42944336 1183.13354492 C-1005.71467207 1176.94516866 -1006.5242628 1170.82306139 -1007.15991211 1164.54467773 C-1007.66087521 1159.6643938 -1008.29567818 1154.82516439 -1009.03491211 1149.9753418 C-1010.45995719 1140.61378328 -1011.47362674 1131.2838238 -1012.13986206 1121.83763123 C-1012.55253582 1116.0117036 -1013.04296529 1110.20658691 -1013.67016602 1104.3996582 C-1016.27923132 1079.33410295 -1016.39300723 1054.34093315 -1016.32055664 1029.15844727 C-1016.3034661 1023.15183491 -1016.31362255 1017.14562155 -1016.33089066 1011.13902283 C-1016.39196726 986.03431942 -1016.0357947 961.19258974 -1013.32551575 936.22106934 C-1012.73800985 930.62146384 -1012.25890036 925.0134029 -1011.77522278 919.40405273 C-1010.78304761 908.04699426 -1009.55153469 896.788423 -1007.61303711 885.55151367 C-1006.91042874 881.46790373 -1006.40571909 877.37378687 -1005.92944336 873.25854492 C-1005.21620417 867.32863894 -1004.24839452 861.48717292 -1003.09863281 855.62988281 C-1002.27947028 851.42491587 -1001.57810665 847.21943659 -1000.95458984 842.98120117 C-999.10942415 830.4933119 -996.40083279 818.20559756 -993.68212891 805.88305664 C-992.90181985 802.31990683 -992.14313382 798.75256665 -991.38647461 795.18432617 C-990.22292539 789.74573535 -988.98143133 784.33750694 -987.61694336 778.94604492 C-987.4074707 778.11419678 -987.19799805 777.28234863 -986.98217773 776.42529297 C-981.94511925 756.58171984 -976.331696 736.90517678 -970.16772461 717.38354492 C-969.35990328 714.82470948 -968.5682665 712.26266682 -967.78491211 709.69604492 C-965.29836788 701.57943231 -962.63540747 693.53357026 -959.86694336 685.50854492 C-959.3742395 684.06983032 -959.3742395 684.06983032 -958.87158203 682.60205078 C-957.06105348 677.39932536 -955.058602 672.37079363 -952.77099609 667.36035156 C-951.80275475 665.15786233 -951.09981002 662.96020698 -950.49194336 660.63354492 C-949.10548612 655.77719739 -947.23615616 651.22556884 -945.24975586 646.58666992 C-943.90053966 643.37729173 -942.65687984 640.14126941 -941.42944336 636.88354492 C-939.54290339 631.93505068 -937.47483188 627.12175524 -935.24194336 622.32104492 C-933.76044594 619.0758601 -932.37626384 615.79630607 -930.99194336 612.50854492 C-928.61616001 606.91810628 -925.99021677 601.51289936 -923.22631836 596.10620117 C-922.15872799 593.91635467 -921.27902094 591.80738738 -920.49194336 589.50854492 C-918.78369434 584.61906568 -916.16555347 580.20240887 -913.64819336 575.69213867 C-911.87364339 572.34065906 -910.40952893 568.9364529 -908.92944336 565.44604492 C-907.7187085 562.88443129 -906.45373652 560.35154732 -905.17944336 557.82104492 C-904.83018799 557.12591797 -904.48093262 556.43079102 -904.12109375 555.71459961 C-899.7854223 547.12767322 -895.26455725 538.66437893 -890.36694336 530.38354492 C-888.00892475 526.3902114 -885.84700036 522.35951788 -883.80444336 518.19604492 C-880.89762229 512.27417008 -877.54657785 506.84724463 -873.86694336 501.38354492 C-870.49027231 496.26407591 -867.61841564 490.95843809 -864.92944336 485.44604492 C-864.26944336 485.44604492 -863.60944336 485.44604492 -862.92944336 485.44604492 C-862.68194336 484.55916992 -862.43444336 483.67229492 -862.17944336 482.75854492 C-860.86555473 479.27674007 -859.28933209 477.2917931 -856.92944336 474.44604492 C-856.00765572 472.81762374 -855.0865877 471.18878981 -854.16967773 469.55761719 C-851.66882588 465.29976922 -848.86801559 461.23220119 -846.11694336 457.13354492 C-845.23039062 455.80419922 -845.23039062 455.80419922 -844.32592773 454.44799805 C-841.33939071 449.98284836 -838.31328581 445.55178008 -835.21850586 441.16088867 C-832.08618217 436.70927606 -829.22811514 432.15689395 -826.40991211 427.50073242 C-825.92135742 426.82268555 -825.43280273 426.14463867 -824.92944336 425.44604492 C-824.26944336 425.44604492 -823.60944336 425.44604492 -822.92944336 425.44604492 C-822.67163086 424.72932617 -822.41381836 424.01260742 -822.14819336 423.27416992 C-820.85903306 420.28265691 -819.30735609 417.85376887 -817.42944336 415.19604492 C-816.82100586 414.32463867 -816.21256836 413.45323242 -815.58569336 412.55541992 C-813.92944336 410.44604492 -813.92944336 410.44604492 -811.92944336 409.44604492 C-810.79593802 407.42934665 -810.79593802 407.42934665 -809.92944336 405.44604492 C-809.26944336 405.44604492 -808.60944336 405.44604492 -807.92944336 405.44604492 C-807.68194336 404.73061523 -807.43444336 404.01518555 -807.17944336 403.27807617 C-805.79080741 400.13194786 -804.0848039 397.8079353 -801.92944336 395.13354492 C-801.22819336 394.25053711 -800.52694336 393.3675293 -799.80444336 392.45776367 C-798.87631836 391.46196289 -798.87631836 391.46196289 -797.92944336 390.44604492 C-797.26944336 390.44604492 -796.60944336 390.44604492 -795.92944336 390.44604492 C-795.87143555 389.91495117 -795.81342773 389.38385742 -795.75366211 388.83666992 C-794.54744179 385.33805932 -792.1603318 382.91994734 -789.74194336 380.19604492 C-785.95363637 375.84650727 -782.34620846 371.48204217 -779.05053711 366.73901367 C-778.68057617 366.31233398 -778.31061523 365.8856543 -777.92944336 365.44604492 C-777.26944336 365.44604492 -776.60944336 365.44604492 -775.92944336 365.44604492 C-775.58913086 364.36323242 -775.58913086 364.36323242 -775.24194336 363.25854492 C-773.97152488 360.53621961 -772.65383403 359.05013682 -770.48413086 357.02807617 C-767.72603768 354.22147382 -765.39975537 351.05289913 -762.99194336 347.94604492 C-760.78054177 345.26555815 -758.4027407 342.88703504 -755.92944336 340.44604492 C-753.55488478 337.96505763 -751.21059162 335.45620902 -748.86694336 332.94604492 C-748.2552832 332.29506836 -747.64362305 331.6440918 -747.01342773 330.97338867 C-744.42747194 328.20571706 -741.94838018 325.47039684 -739.62084961 322.47729492 C-739.06268555 321.80698242 -738.50452148 321.13666992 -737.92944336 320.44604492 C-737.26944336 320.44604492 -736.60944336 320.44604492 -735.92944336 320.44604492 C-735.66131836 319.80666992 -735.39319336 319.16729492 -735.11694336 318.50854492 C-733.92944336 316.44604492 -733.92944336 316.44604492 -730.92944336 315.44604492 C-730.59944336 314.78604492 -730.26944336 314.12604492 -729.92944336 313.44604492 C-728.92944336 311.44604492 -728.92944336 311.44604492 -725.92944336 310.44604492 C-725.59944336 309.78604492 -725.26944336 309.12604492 -724.92944336 308.44604492 C-723.92944336 306.44604492 -723.92944336 306.44604492 -720.92944336 305.44604492 C-720.66131836 304.70354492 -720.39319336 303.96104492 -720.11694336 303.19604492 C-718.45937229 299.35745928 -716.29706416 297.90160175 -712.92944336 295.44604492 C-712.26944336 295.44604492 -711.60944336 295.44604492 -710.92944336 295.44604492 C-710.66131836 294.80666992 -710.39319336 294.16729492 -710.11694336 293.50854492 C-708.92944336 291.44604492 -708.92944336 291.44604492 -705.92944336 290.44604492 C-705.59944336 289.78604492 -705.26944336 289.12604492 -704.92944336 288.44604492 C-703.92944336 286.44604492 -703.92944336 286.44604492 -700.92944336 285.44604492 C-700.59944336 284.78604492 -700.26944336 284.12604492 -699.92944336 283.44604492 C-698.92944336 281.44604492 -698.92944336 281.44604492 -695.92944336 280.44604492 C-695.25931275 279.11444919 -694.59326356 277.78079769 -693.92944336 276.44604492 C-691.89819336 274.40307617 -691.89819336 274.40307617 -689.42944336 272.25854492 C-688.53483398 271.47350586 -687.64022461 270.6884668 -686.71850586 269.87963867 C-685.79811523 269.07655273 -684.87772461 268.2734668 -683.92944336 267.44604492 C-682.2185258 265.90724669 -680.51011561 264.36565524 -678.80444336 262.82104492 C-677.1803802 261.36166835 -675.55543312 259.90327463 -673.92944336 258.44604492 C-673.23979492 257.82729492 -672.55014648 257.20854492 -671.83959961 256.57104492 C-667.6969396 252.89597228 -663.43053162 249.45495856 -659.00756836 246.12182617 C-656.84032029 244.44376205 -656.84032029 244.44376205 -654.78881836 242.23901367 C-652.92944336 240.44604492 -652.92944336 240.44604492 -650.92944336 240.44604492 C-650.59944336 239.45604492 -650.26944336 238.46604492 -649.92944336 237.44604492 C-647.94026988 235.77525604 -645.95945197 234.22574488 -643.86694336 232.69604492 C-639.19404412 229.21219161 -634.7525218 225.64083978 -630.51538086 221.62573242 C-628.92944336 220.44604492 -628.92944336 220.44604492 -625.92944336 220.44604492 C-625.71288086 219.87370117 -625.49631836 219.30135742 -625.27319336 218.71166992 C-623.48529452 215.69718933 -621.27710062 214.21938034 -618.42944336 212.19604492 C-617.44975586 211.48963867 -616.47006836 210.78323242 -615.46069336 210.05541992 C-612.92944336 208.44604492 -612.92944336 208.44604492 -610.92944336 208.44604492 C-610.59944336 207.45604492 -610.26944336 206.46604492 -609.92944336 205.44604492 C-608.93944336 205.11604492 -607.94944336 204.78604492 -606.92944336 204.44604492 C-606.37385742 203.88401367 -605.81827148 203.32198242 -605.24584961 202.74291992 C-602.08471673 199.60844078 -598.52163556 197.22198776 -594.86694336 194.69604492 C-593.3391252 193.63031846 -591.81178185 192.563911 -590.28491211 191.49682617 C-589.54160645 190.97813965 -588.79830078 190.45945313 -588.0324707 189.92504883 C-584.38859548 187.36240707 -580.80642758 184.71801572 -577.22631836 182.06713867 C-574.85674731 180.39473733 -572.42004462 178.93160238 -569.92944336 177.44604492 C-567.51691943 175.88764214 -565.12910891 174.29294708 -562.74194336 172.69604492 C-562.0806543 172.25502441 -561.41936523 171.81400391 -560.73803711 171.35961914 C-556.93178572 168.81317032 -553.16433485 166.22161308 -549.42944336 163.57104492 C-546.79715591 161.71066384 -544.18151561 159.95431987 -541.36694336 158.38354492 C-537.88735068 156.42231995 -534.62594956 154.26752679 -531.33569336 152.00854492 C-526.39211872 148.79843152 -521.17697101 146.02085956 -516.03198242 143.14868164 C-510.58578336 140.10491074 -505.17174748 137.05395619 -499.91381836 133.69213867 C-497.28115125 132.03894811 -494.60882556 130.45984813 -491.92944336 128.88354492 C-490.50631836 128.04629883 -490.50631836 128.04629883 -489.05444336 127.19213867 C-486.09987464 125.5412734 -483.1131234 124.0186468 -480.08032227 122.51953125 C-476.22791899 120.59682782 -472.42508143 118.57961025 -468.61694336 116.57104492 C-467.78388672 116.13268311 -466.95083008 115.69432129 -466.0925293 115.24267578 C-460.81024535 112.45720069 -455.55733791 109.62615344 -450.35131836 106.69995117 C-447.27987786 105.10973762 -444.10871555 103.80712819 -440.92944336 102.44604492 C-438.58780699 101.2961342 -436.25441413 100.12928897 -433.92944336 98.94604492 C-427.67820133 95.76460925 -421.3467273 92.97039885 -414.80444336 90.44604492 C-412.18024886 89.40582368 -409.85356686 88.40051902 -407.42944336 86.94604492 C-404.36277126 85.10604166 -401.19580641 83.9069203 -397.86694336 82.61401367 C-394.54374503 81.29268881 -391.27093934 79.87341488 -387.99194336 78.44604492 C-382.92637122 76.26100353 -377.84018615 74.27960652 -372.64038086 72.44213867 C-368.7833887 71.02494415 -365.01588933 69.41346935 -361.24194336 67.78979492 C-351.79180218 63.95624709 -342.09196574 60.7491964 -332.44702148 57.44604492 C-327.87809911 55.86864219 -323.36636821 54.23800122 -318.90209961 52.38354492 C-314.5824265 50.6247413 -310.2375945 49.3697981 -305.7277832 48.1965332 C-300.05694382 46.67566771 -294.49723548 44.78039536 -288.91577148 42.96362305 C-283.61792707 41.25476107 -278.33690057 39.76392794 -272.92944336 38.44604492 C-271.58857057 38.01026127 -270.25329772 37.55607777 -268.92944336 37.07104492 C-262.86733719 35.00931338 -256.64526924 33.57559536 -250.42993164 32.0612793 C-247.63372207 31.37328397 -244.84200756 30.66864456 -242.05053711 29.96166992 C-240.50281616 29.57072144 -240.50281616 29.57072144 -238.92382812 29.171875 C-236.90960244 28.66284043 -234.89574027 28.1523643 -232.88232422 27.64013672 C-225.2679834 25.72420411 -217.61350318 24.05704161 -209.92944336 22.44604492 C-208.57781781 22.15963984 -207.22625703 21.87292893 -205.87475586 21.5859375 C-202.30830371 20.82964792 -198.74007318 20.08219481 -195.17089844 19.33886719 C-193.71961723 19.03560226 -192.26876709 18.73026697 -190.81835938 18.42285156 C-182.00131407 16.5553972 -173.24007853 14.96956144 -164.28833008 13.90307617 C-160.81021854 13.42982244 -157.42091193 12.75524121 -153.99194336 12.00854492 C-145.25512121 10.18760725 -136.4385222 9.18829966 -127.58178711 8.13354492 C-123.3496239 7.62887419 -119.14061335 7.04331207 -114.92944336 6.38354492 C-108.07308758 5.38417168 -101.19620338 4.80973934 -94.28993225 4.28369141 C-88.50090796 3.84089615 -82.72907077 3.33132269 -76.95727539 2.70141602 C-51.33103755 0.02314948 -25.74563807 -0.04962447 0 0 Z M-29.97167969 458.99560547 C-32.89069149 459.44014338 -35.78363386 459.72689065 -38.72631836 459.96166992 C-43.21309864 460.32947851 -47.26695498 461.09823984 -51.61694336 462.25854492 C-52.99705809 462.6208808 -54.37726926 462.98284951 -55.75756836 463.34448242 C-56.44915039 463.52849609 -57.14073242 463.71250977 -57.85327148 463.90209961 C-59.86886204 464.43017296 -61.88884652 464.9318566 -63.91381836 465.42260742 C-78.54057196 468.96772053 -92.80762846 473.23421799 -106.92944336 478.44604492 C-107.89495117 478.78506836 -108.86045898 479.1240918 -109.85522461 479.47338867 C-115.47298616 481.45192138 -120.86519584 483.71973543 -126.26147461 486.23901367 C-128.70877176 487.3462096 -131.1655553 488.3153175 -133.67944336 489.25854492 C-139.50945217 491.53822786 -144.92861262 494.54958368 -150.41381836 497.54370117 C-152.62398916 498.73964915 -154.85141454 499.90475965 -157.10131836 501.02416992 C-159.62885624 502.29492101 -162.02066714 503.6535046 -164.42944336 505.13354492 C-170.85536385 509.03429482 -177.39285431 512.73507073 -183.92944336 516.44604492 C-183.92944336 517.10604492 -183.92944336 517.76604492 -183.92944336 518.44604492 C-184.65518555 518.70901367 -185.38092773 518.97198242 -186.12866211 519.24291992 C-188.97633127 520.46618645 -191.22744366 521.89242963 -193.74194336 523.69604492 C-194.6172168 524.3225293 -195.49249023 524.94901367 -196.39428711 525.59448242 C-199.18192009 527.63044241 -201.95812924 529.67805473 -204.70678711 531.76635742 C-206.48108841 533.10721781 -208.26770319 534.43177938 -210.05834961 535.75073242 C-210.87746826 536.35618896 -210.87746826 536.35618896 -211.71313477 536.97387695 C-213.30323758 538.14896622 -214.89559149 539.3210075 -216.48803711 540.49291992 C-218.98741853 542.21278012 -218.98741853 542.21278012 -219.92944336 544.44604492 C-220.56881836 544.75541992 -221.20819336 545.06479492 -221.86694336 545.38354492 C-224.24915829 546.39950414 -224.24915829 546.39950414 -225.92944336 549.44604492 C-227.41444336 549.94104492 -227.41444336 549.94104492 -228.92944336 550.44604492 C-230.64053024 552.0670746 -232.30197642 553.74107955 -233.92944336 555.44604492 C-236.82991581 558.36216741 -239.74949332 561.25870588 -242.67163086 564.15307617 C-244.04928731 565.52151312 -245.4268903 566.89000389 -246.80444336 568.25854492 C-247.48635742 568.93208008 -248.16827148 569.60561523 -248.87084961 570.29956055 C-254.26926703 575.67227122 -259.37416216 581.23369142 -264.11694336 587.19604492 C-265.92944336 589.44604492 -265.92944336 589.44604492 -267.75366211 591.21557617 C-270.26280256 593.78778299 -272.38195393 596.52109549 -274.55444336 599.38354492 C-275.43830642 600.54649654 -276.32242848 601.70925136 -277.20678711 602.87182617 C-277.65650879 603.46431152 -278.10623047 604.05679688 -278.56958008 604.66723633 C-279.88609238 606.38933842 -281.21852292 608.09751095 -282.55834961 609.80151367 C-287.76808757 616.44429994 -292.52057836 623.23967674 -296.92944336 630.44604492 C-299.81941891 634.93504248 -299.81941891 634.93504248 -301.08178711 636.88745117 C-302.08870068 638.44317524 -302.08870068 638.44317524 -301.92944336 640.44604492 C-302.58944336 640.44604492 -303.24944336 640.44604492 -303.92944336 640.44604492 C-304.36643555 641.35483398 -304.36643555 641.35483398 -304.81225586 642.28198242 C-307.01665589 646.78783154 -309.3079985 651.16752093 -311.92944336 655.44604492 C-316.23473971 662.49610604 -319.74411951 669.82896616 -322.92944336 677.44604492 C-323.53066324 678.80152247 -324.13509737 680.15557682 -324.74194336 681.50854492 C-325.47226457 683.15386626 -326.20128182 684.79976665 -326.92944336 686.44604492 C-327.40768555 687.52370117 -327.88592773 688.60135742 -328.37866211 689.71166992 C-331.27584659 696.33797598 -333.85928925 702.94359117 -336.05834961 709.83276367 C-336.78985639 712.02728402 -337.60007693 714.09264029 -338.55444336 716.19604492 C-339.86304361 719.28910005 -340.65203585 722.17991731 -341.40209961 725.43432617 C-341.92944336 727.44604492 -341.92944336 727.44604492 -343.36694336 731.07104492 C-345.27392487 735.92517968 -346.17749222 740.97569395 -347.18334961 746.07885742 C-347.92944336 749.44604492 -347.92944336 749.44604492 -348.96069336 752.50463867 C-349.94437141 755.49137081 -350.44630478 758.27081941 -350.86694336 761.38354492 C-351.53553737 766.1054463 -352.39042691 770.73786199 -353.39428711 775.39916992 C-354.89070384 782.64526663 -355.74890955 789.88635773 -356.38256836 797.26074219 C-356.55357111 799.24840626 -356.73756901 801.23493822 -356.92163086 803.22143555 C-357.29376564 807.29369074 -357.62296452 811.36835025 -357.92944336 815.44604492 C-358.00921921 816.50062393 -358.00921921 816.50062393 -358.09060669 817.57650757 C-358.97947065 829.78955697 -358.95496043 841.89828676 -358.61694336 854.13354492 C-358.59332733 855.06370422 -358.5697113 855.99386353 -358.54537964 856.95220947 C-358.11349117 873.82124367 -357.27422818 890.62369004 -355.92944336 907.44604492 C-355.85081055 908.46327637 -355.77217773 909.48050781 -355.69116211 910.52856445 C-354.88436731 920.75537223 -353.68585704 930.74564339 -351.64819336 940.80151367 C-350.96223256 944.27978228 -350.42437207 947.74867549 -349.92944336 951.25854492 C-349.19004826 956.24946181 -348.05355473 960.98348125 -346.64819336 965.82495117 C-345.94294706 968.39680044 -345.41415169 970.94958071 -344.92944336 973.57104492 C-344.1756546 977.54099906 -343.09087838 981.25209862 -341.71069336 985.04760742 C-340.82785584 987.75791859 -340.17854793 990.50647091 -339.50073242 993.27368164 C-338.52796667 996.97268575 -337.28832958 1000.57740242 -336.05444336 1004.19604492 C-335.51648305 1005.78582105 -334.9787229 1007.37566491 -334.44116211 1008.96557617 C-334.18125488 1009.73208496 -333.92134766 1010.49859375 -333.65356445 1011.28833008 C-332.69521029 1014.14400575 -331.78565654 1017.01490988 -330.86694336 1019.88354492 C-329.29540991 1024.59814527 -327.38455609 1029.05737075 -325.26928711 1033.55151367 C-323.80492875 1036.71504004 -322.46104605 1039.9171691 -321.11694336 1043.13354492 C-318.02359193 1050.39102328 -314.53019197 1057.4111162 -310.94946289 1064.43823242 C-309.25905811 1067.76563522 -307.59541858 1071.10636373 -305.92944336 1074.44604492 C-305.35194336 1075.60104492 -304.77444336 1076.75604492 -304.17944336 1077.94604492 C-303.76694336 1078.77104492 -303.35444336 1079.59604492 -302.92944336 1080.44604492 C-302.26944336 1080.44604492 -301.60944336 1080.44604492 -300.92944336 1080.44604492 C-300.70772461 1081.25428711 -300.48600586 1082.0625293 -300.25756836 1082.89526367 C-298.5768421 1087.38873475 -296.22009038 1091.2050043 -293.67944336 1095.25854492 C-293.1821875 1096.06098633 -292.68493164 1096.86342773 -292.17260742 1097.69018555 C-287.14588098 1105.77108391 -281.85094892 1113.61637151 -276.34741211 1121.37963867 C-274.92944336 1123.44604492 -274.92944336 1123.44604492 -273.92944336 1125.44604492 C-273.26944336 1125.44604492 -272.60944336 1125.44604492 -271.92944336 1125.44604492 C-271.70385742 1126.13311523 -271.47827148 1126.82018555 -271.24584961 1127.52807617 C-269.59643766 1131.18419109 -267.36211869 1134.0172227 -264.86694336 1137.13354492 C-260.02872907 1143.24747349 -260.02872907 1143.24747349 -258.92944336 1145.44604492 C-258.26944336 1145.44604492 -257.60944336 1145.44604492 -256.92944336 1145.44604492 C-256.7012793 1146.12795898 -256.47311523 1146.80987305 -256.23803711 1147.51245117 C-254.59795054 1151.18918255 -252.39052454 1154.1681309 -249.99194336 1157.38354492 C-246.85589261 1161.59689987 -244.14814381 1165.64984428 -241.92944336 1170.44604492 C-241.26944336 1170.44604492 -240.60944336 1170.44604492 -239.92944336 1170.44604492 C-239.84049805 1171.13569336 -239.75155273 1171.8253418 -239.65991211 1172.53588867 C-238.75386404 1176.14554543 -237.14978756 1178.81426864 -235.24194336 1182.00854492 C-230.44614101 1190.17965088 -225.84462903 1198.4273486 -222.70678711 1207.39526367 C-221.74338136 1209.93691201 -220.58821069 1212.36253264 -219.42944336 1214.82104492 C-217.40744188 1219.18494662 -215.96630614 1223.48667484 -214.67553711 1228.11010742 C-213.73791118 1231.04571111 -212.39377041 1233.63375277 -210.95288086 1236.34838867 C-209.21563065 1239.90908852 -208.12400623 1243.67523446 -206.92944336 1247.44604492 C-206.51782959 1248.74288208 -206.51782959 1248.74288208 -206.09790039 1250.06591797 C-199.63960959 1270.86013392 -196.40413108 1291.74897786 -194.92944336 1313.44604492 C-196.00387695 1313.52121338 -197.07831055 1313.59638184 -198.18530273 1313.67382812 C-216.304387 1314.94666108 -234.41464489 1316.22791901 -252.49194336 1318.00854492 C-262.98397481 1319.04053721 -273.46844039 1319.84137815 -283.99194336 1320.44604492 C-296.1050451 1321.14281626 -308.14959846 1322.14680699 -320.21679688 1323.39331055 C-326.43087514 1324.03199496 -332.61664892 1324.55206042 -338.85522461 1324.88745117 C-344.20705461 1325.22760839 -348.575713 1325.86044705 -353.55444336 1327.82104492 C-354.66045898 1328.2412793 -355.76647461 1328.66151367 -356.90600586 1329.09448242 C-359.75710727 1330.36900579 -362.3644385 1331.66293746 -364.92944336 1333.44604492 C-364.92944336 1334.10604492 -364.92944336 1334.76604492 -364.92944336 1335.44604492 C-365.73381836 1335.53885742 -365.73381836 1335.53885742 -366.55444336 1335.63354492 C-374.71377576 1338.42489548 -380.28725391 1347.49088451 -384.15209961 1354.73901367 C-385.1476777 1356.95185729 -386.04234082 1359.18762971 -386.92944336 1361.44604492 C-387.36256836 1362.42959961 -387.79569336 1363.4131543 -388.24194336 1364.42651367 C-388.69569336 1365.46420898 -389.14944336 1366.5019043 -389.61694336 1367.57104492 C-390.03331055 1368.52237305 -390.44967773 1369.47370117 -390.87866211 1370.45385742 C-392.04689869 1373.78050879 -392.53275238 1376.94993319 -392.92944336 1380.44604492 C-396.26253691 1381.50929808 -399.59593783 1382.57158414 -402.92944336 1383.63354492 C-403.92516357 1383.950896 -404.92088379 1384.26824707 -405.94677734 1384.59521484 C-410.55284995 1386.06130442 -415.15998542 1387.52287326 -419.77709961 1388.95385742 C-420.49575195 1389.17662354 -421.2144043 1389.39938965 -421.95483398 1389.62890625 C-423.87418463 1390.22214754 -425.79436576 1390.81269997 -427.71459961 1391.40307617 C-429.69504277 1392.04557717 -431.65999536 1392.74212767 -433.58959961 1393.52416992 C-435.84267029 1394.4118572 -437.93046171 1394.93360255 -440.30444336 1395.38354492 C-443.72318705 1396.10652515 -446.69578186 1397.14046625 -449.88256836 1398.60229492 C-453.60581735 1400.13706931 -457.49041233 1401.18893375 -461.34350586 1402.34838867 C-466.93830847 1404.06095897 -472.47744666 1405.93827727 -478.0222168 1407.80493164 C-481.15584851 1408.85830042 -484.2928288 1409.90159811 -487.42944336 1410.94604492 C-489.28569336 1411.56479492 -489.28569336 1411.56479492 -491.17944336 1412.19604492 C-504.55444336 1416.65437826 -517.92944336 1421.11271159 -531.30444336 1425.57104492 C-532.26866211 1425.89331055 -533.23288086 1426.21557617 -534.22631836 1426.54760742 C-535.92213834 1427.11124701 -537.61980346 1427.66939672 -539.32006836 1428.21948242 C-543.17427585 1429.47277367 -546.93304061 1430.83559395 -550.67944336 1432.38354492 C-557.49350174 1435.15572395 -564.53969742 1437.23902361 -571.62866211 1439.18823242 C-584.029732 1442.65352354 -594.16364836 1448.98821348 -602.92944336 1458.44604492 C-603.48374023 1459.01838867 -604.03803711 1459.59073242 -604.60913086 1460.18041992 C-614.14527305 1470.41233214 -618.70002256 1483.56009032 -618.21069336 1497.56713867 C-616.75556977 1512.46194544 -611.36458608 1524.61135845 -600.92944336 1535.44604492 C-600.26944336 1535.44604492 -599.60944336 1535.44604492 -598.92944336 1535.44604492 C-598.70256836 1535.98229492 -598.47569336 1536.51854492 -598.24194336 1537.07104492 C-596.47374247 1540.27064654 -594.39274133 1542.73641715 -591.92944336 1545.44604492 C-591.26944336 1545.44604492 -590.60944336 1545.44604492 -589.92944336 1545.44604492 C-589.70256836 1546.16791992 -589.47569336 1546.88979492 -589.24194336 1547.63354492 C-587.6653925 1551.01186819 -585.61957761 1552.8840123 -582.92944336 1555.44604492 C-581.59611003 1557.11271159 -580.26277669 1558.77937826 -578.92944336 1560.44604492 C-577.69194336 1561.68354492 -577.69194336 1561.68354492 -576.42944336 1562.94604492 C-573.92944336 1565.44604492 -573.92944336 1565.44604492 -572.11694336 1567.82104492 C-570.24084107 1570.07236767 -568.46553578 1571.75711417 -566.24194336 1573.63354492 C-562.12860838 1577.13523158 -558.65510777 1581.04331324 -555.09350586 1585.09448242 C-552.73522484 1587.65709104 -550.23000309 1589.82678055 -547.53881836 1592.02416992 C-545.83354602 1593.53076976 -544.43711723 1595.12758097 -542.99194336 1596.88354492 C-538.80458174 1601.94187776 -533.72497495 1605.96715899 -528.67944336 1610.13354492 C-525.92944336 1612.44604492 -525.92944336 1612.44604492 -523.67944336 1614.75854492 C-522.09467548 1616.67742345 -522.09467548 1616.67742345 -519.92944336 1616.44604492 C-519.72319336 1617.00291992 -519.51694336 1617.55979492 -519.30444336 1618.13354492 C-517.35261304 1621.41616864 -514.98713341 1623.15277738 -511.92944336 1625.44604492 C-511.26944336 1625.44604492 -510.60944336 1625.44604492 -509.92944336 1625.44604492 C-509.7219043 1626.01194336 -509.51436523 1626.5778418 -509.30053711 1627.16088867 C-507.41186768 1630.30867105 -504.96573415 1631.87822934 -501.99194336 1634.00854492 C-495.40100351 1638.75754533 -495.40100351 1638.75754533 -492.92944336 1641.44604492 C-489.91670717 1644.66592451 -489.91670717 1644.66592451 -485.92944336 1646.44604492 C-484.58612293 1647.76931579 -483.25439496 1649.10438222 -481.92944336 1650.44604492 C-479.09130107 1652.57364805 -476.195743 1654.60347696 -473.29272461 1656.64135742 C-470.92944336 1658.44604492 -470.92944336 1658.44604492 -469.92944336 1660.44604492 C-468.28299671 1661.47899759 -466.6125669 1662.47399918 -464.92944336 1663.44604492 C-460.35045406 1666.50838008 -455.80739616 1669.61353346 -451.61694336 1673.19604492 C-449.13138761 1675.27697531 -446.70430399 1676.79014581 -443.92944336 1678.44604492 C-441.40895178 1680.17888288 -438.92046369 1681.95244294 -436.42944336 1683.72729492 C-434.79368152 1684.85188118 -433.12402843 1685.92904297 -431.42163086 1686.94995117 C-428.86897974 1688.48234205 -426.47326298 1690.14864075 -424.05444336 1691.88354492 C-420.11297166 1694.66541573 -416.15560715 1697.12579813 -411.92944336 1699.44604492 C-411.00131836 1700.02354492 -410.07319336 1700.60104492 -409.11694336 1701.19604492 C-407.05993824 1702.61142457 -407.05993824 1702.61142457 -404.92944336 1702.44604492 C-404.92944336 1703.10604492 -404.92944336 1703.76604492 -404.92944336 1704.44604492 C-404.40995117 1704.69999023 -403.89045898 1704.95393555 -403.35522461 1705.21557617 C-399.43825921 1707.14871806 -395.66073526 1709.17086693 -391.92944336 1711.44604492 C-390.45211514 1712.2618829 -388.97274984 1713.07403738 -387.49194336 1713.88354492 C-384.79396746 1715.36408707 -382.33407287 1716.86280426 -379.80444336 1718.63354492 C-376.48797547 1720.72436163 -373.72106126 1721.53605663 -369.92944336 1722.44604492 C-369.92944336 1723.10604492 -369.92944336 1723.76604492 -369.92944336 1724.44604492 C-369.32358398 1724.74897461 -368.71772461 1725.0519043 -368.09350586 1725.36401367 C-363.70548503 1727.55802409 -359.31746419 1729.75203451 -354.92944336 1731.94604492 C-353.68227539 1732.56866211 -353.68227539 1732.56866211 -352.40991211 1733.20385742 C-350.8062424 1734.00695501 -349.2045323 1734.81398297 -347.60522461 1735.62573242 C-337.32599606 1740.82481331 -326.84119919 1745.59096043 -316.34350586 1750.32885742 C-314.1559512 1751.3412209 -312.01050349 1752.40687458 -309.86694336 1753.50854492 C-305.3406993 1755.79904343 -300.65154691 1757.60296278 -295.92944336 1759.44604492 C-293.4286813 1760.44419159 -290.92867474 1761.44408521 -288.42944336 1762.44604492 C-286.60618978 1763.17534635 -284.78290875 1763.90458187 -282.95874023 1764.6315918 C-281.50442985 1765.21527556 -280.05291016 1765.80593135 -278.60327148 1766.40112305 C-272.61906143 1768.84087561 -266.5768984 1770.95742948 -260.42944336 1772.94604492 C-254.24272954 1774.94736003 -248.18492706 1777.10465771 -242.16235352 1779.55786133 C-239.43413291 1780.64306432 -236.67994542 1781.54390057 -233.86694336 1782.38354492 C-232.76995117 1782.71225586 -231.67295898 1783.0409668 -230.54272461 1783.37963867 C-229.3503418 1783.73155273 -228.15795898 1784.0834668 -226.92944336 1784.44604492 C-225.56868026 1784.85330971 -224.20800664 1785.26087356 -222.84741211 1785.66870117 C-214.66673556 1788.10884799 -206.46302156 1790.41033282 -198.19897461 1792.55151367 C-196.09496994 1793.1271613 -194.00564567 1793.76122296 -191.94116211 1794.46557617 C-188.6301818 1795.54346989 -185.3419083 1796.25756515 -181.92944336 1796.94604492 C-178.52867686 1797.63216448 -175.27022466 1798.33034199 -171.98413086 1799.44604492 C-168.38951509 1800.62279893 -164.77122203 1801.29993509 -161.05444336 1801.94604492 C-152.56649832 1803.46989062 -152.56649832 1803.46989062 -148.80444336 1804.50854492 C-145.28504026 1805.36001341 -141.8889086 1805.89980072 -138.30444336 1806.38354492 C-133.50669092 1807.03106305 -128.8355168 1807.86549703 -124.11694336 1808.94604492 C-118.36129953 1810.22649961 -112.62884348 1811.04267822 -106.77296448 1811.66030884 C-102.25387924 1812.14525185 -97.77804566 1812.76372343 -93.29232788 1813.4927063 C-80.68031581 1815.52369673 -68.03747631 1816.6219704 -55.30444336 1817.57104492 C-54.18059235 1817.65631439 -53.05674133 1817.74158386 -51.89883423 1817.82943726 C4.96620197 1822.09833727 63.35524211 1821.93208105 119.64428711 1811.85571289 C123.35465419 1811.2292291 127.08215773 1810.80343755 130.82055664 1810.38354492 C136.88274435 1809.66473358 142.74905453 1808.51562542 148.69946289 1807.16479492 C152.0237455 1806.45602551 155.33130775 1805.92608043 158.69555664 1805.44604492 C163.97607676 1804.67703714 169.04525632 1803.51014968 174.20336914 1802.15698242 C176.82274108 1801.50749238 179.40929754 1801.01044284 182.07055664 1800.57104492 C213.38947047 1795.11839949 245.00644553 1784.78423392 274.66308594 1773.48510742 C277.96536518 1772.22757154 281.26661508 1771.02004027 284.63305664 1769.94604492 C294.39341926 1766.77951506 303.86786017 1762.55881365 313.32055664 1758.58666992 C315.82927747 1757.54612094 318.35129063 1756.55376989 320.88305664 1755.57104492 C330.47221939 1751.7569979 339.752548 1747.1497575 348.95336914 1742.48901367 C350.7553665 1741.60131387 352.59742896 1740.79571041 354.44555664 1740.00854492 C359.76723304 1737.71471889 364.90115147 1735.06139615 370.07055664 1732.44604492 C371.07344727 1731.9484668 372.07633789 1731.45088867 373.10961914 1730.93823242 C377.82847337 1728.5601291 382.44148555 1725.99332706 387.07055664 1723.44604492 C387.84915039 1723.0206543 388.62774414 1722.59526367 389.42993164 1722.15698242 C394.27481402 1719.49401516 399.01078091 1716.68894525 403.71118164 1713.77807617 C406.10442852 1712.42692189 408.49913377 1711.40804887 411.07055664 1710.44604492 C411.07055664 1709.78604492 411.07055664 1709.12604492 411.07055664 1708.44604492 C414.40388997 1707.11271159 417.73722331 1705.77937826 421.07055664 1704.44604492 C421.07055664 1703.78604492 421.07055664 1703.12604492 421.07055664 1702.44604492 C422.40086914 1702.07479492 422.40086914 1702.07479492 423.75805664 1701.69604492 C427.2398615 1700.3821563 429.22480847 1698.80593365 432.07055664 1696.44604492 C433.7711218 1695.48346087 435.47233411 1694.52185516 437.18383789 1693.57885742 C439.26539736 1692.32905981 441.14702772 1690.92682734 443.07055664 1689.44604492 C445.49912524 1687.57791523 447.88112781 1685.9130061 450.57055664 1684.44604492 C454.04940339 1682.5477701 457.10101731 1680.22485431 460.23852539 1677.81323242 C462.07055664 1676.44604492 462.07055664 1676.44604492 464.50805664 1675.00854492 C467.03137943 1673.46993346 469.25186682 1671.77578533 471.57055664 1669.94604492 C475.40854886 1666.92140205 479.29163034 1664.42445439 483.57055664 1662.07104492 C486.16266142 1660.51731958 486.16266142 1660.51731958 488.25805664 1658.19604492 C491.5548567 1654.97250709 495.13410691 1652.55009645 498.96118164 1649.99682617 C501.17567989 1648.6155768 501.17567989 1648.6155768 502.07055664 1646.44604492 C503.40388997 1645.77937826 504.73722331 1645.11271159 506.07055664 1644.44604492 C507.07356414 1643.44906149 508.07285284 1642.44833586 509.07055664 1641.44604492 C510.82857585 1639.97228942 512.60089272 1638.51550973 514.38305664 1637.07104492 C515.35500977 1636.27827148 516.32696289 1635.48549805 517.32836914 1634.66870117 C518.92139238 1633.37749003 520.51834951 1632.09104563 522.12524414 1630.81713867 C523.47504264 1629.73536236 524.7796174 1628.59742316 526.07055664 1627.44604492 C526.07055664 1626.78604492 526.07055664 1626.12604492 526.07055664 1625.44604492 C526.79243164 1625.21916992 527.51430664 1624.99229492 528.25805664 1624.75854492 C531.63488081 1623.18269364 533.62822703 1621.23727876 536.07055664 1618.44604492 C536.07055664 1617.78604492 536.07055664 1617.12604492 536.07055664 1616.44604492 C536.79243164 1616.21916992 537.51430664 1615.99229492 538.25805664 1615.75854492 C541.63637991 1614.18199406 543.50852402 1612.13617917 546.07055664 1609.44604492 C547.24618164 1608.54885742 547.24618164 1608.54885742 548.44555664 1607.63354492 C551.44547659 1605.13361163 553.8419539 1602.36015852 556.37524414 1599.39916992 C558.49366604 1596.95859169 560.75571697 1594.69996776 563.07055664 1592.44604492 C563.89555664 1591.60041992 564.72055664 1590.75479492 565.57055664 1589.88354492 C568.07055664 1587.44604492 568.07055664 1587.44604492 570.50805664 1585.57104492 C572.64368909 1583.80003265 574.19631143 1582.18684284 575.94555664 1580.07104492 C577.97798807 1577.6175727 580.02795867 1575.56843926 582.50805664 1573.57104492 C586.07395101 1570.63488907 588.68259042 1567.23643269 591.44165039 1563.55151367 C593.44796093 1560.95822498 595.72298969 1558.73016411 598.07055664 1556.44604492 C599.40882968 1554.78334205 600.74245449 1553.11688311 602.07055664 1551.44604492 C602.81305664 1550.72416992 603.55555664 1550.00229492 604.32055664 1549.25854492 C606.30208815 1547.62615369 606.30208815 1547.62615369 606.07055664 1545.44604492 C606.90586914 1545.13666992 606.90586914 1545.13666992 607.75805664 1544.82104492 C611.04068035 1542.86921461 612.7772891 1540.50373498 615.07055664 1537.44604492 C615.07055664 1536.78604492 615.07055664 1536.12604492 615.07055664 1535.44604492 C615.73055664 1535.44604492 616.39055664 1535.44604492 617.07055664 1535.44604492 C629.22915781 1522.57545359 634.85367926 1509.03995893 634.41430664 1491.28198242 C633.39300956 1479.88523549 629.9209777 1470.56969987 623.07055664 1461.44604492 C622.57813477 1460.7834668 622.08571289 1460.12088867 621.57836914 1459.43823242 C620.17489411 1457.6001248 620.17489411 1457.6001248 618.07055664 1455.44604492 C617.41055664 1455.44604492 616.75055664 1455.44604492 616.07055664 1455.44604492 C615.74055664 1454.45604492 615.41055664 1453.46604492 615.07055664 1452.44604492 C606.52221905 1444.73792855 595.63958522 1441.37233235 584.78930664 1438.25463867 C580.09684008 1436.85903439 575.46767834 1435.26908095 570.82836914 1433.70776367 C568.4511951 1432.90960648 566.0712912 1432.11949513 563.68774414 1431.34057617 C559.52965708 1429.98060033 555.46537859 1428.6162268 551.44555664 1426.88354492 C547.99762674 1425.41498219 544.58145906 1424.36468072 540.98852539 1423.32104492 C535.62561807 1421.71289065 530.33196283 1419.88897915 525.02612305 1418.10327148 C521.87632533 1417.04468778 518.72328751 1415.99585478 515.57055664 1414.94604492 C505.57055664 1411.61271159 495.57055664 1408.27937826 485.57055664 1404.94604492 C483.71237305 1404.32729492 483.71237305 1404.32729492 481.81665039 1403.69604492 C479.32862564 1402.86583854 476.84163459 1402.03252751 474.35571289 1401.19604492 C467.41881097 1398.86675991 460.46278842 1396.61938945 453.47094727 1394.46166992 C447.82880224 1392.70898057 442.23125222 1390.83376723 436.63305664 1388.94604492 C427.51055299 1385.8740366 418.32850804 1383.07904027 409.07055664 1380.44604492 C408.94100586 1379.5546582 408.94100586 1379.5546582 408.80883789 1378.64526367 C407.62064717 1371.6360285 405.15709054 1365.81384673 402.07055664 1359.44604492 C401.47778715 1358.09598216 400.89285889 1356.74241036 400.32055664 1355.38354492 C399.61236471 1353.71929388 398.87941601 1352.06376365 398.07055664 1350.44604492 C397.41055664 1350.44604492 396.75055664 1350.44604492 396.07055664 1350.44604492 C395.97774414 1349.64166992 395.97774414 1349.64166992 395.88305664 1348.82104492 C393.93324522 1343.12159617 388.78880185 1338.93344355 384.07055664 1335.44604492 C383.08055664 1335.44604492 382.09055664 1335.44604492 381.07055664 1335.44604492 C381.07055664 1334.78604492 381.07055664 1334.12604492 381.07055664 1333.44604492 C370.04317823 1325.80248687 357.44858314 1324.55234112 344.50805664 1323.75854492 C342.89568407 1323.64483795 341.28345967 1323.52901138 339.67138672 1323.41113281 C336.52689833 1323.18217939 333.38202962 1322.96105035 330.23657227 1322.74584961 C325.23249084 1322.39572702 320.24674783 1321.90597459 315.25805664 1321.38354492 C305.61286286 1320.41154865 295.94735113 1319.85460737 286.27246094 1319.26611328 C276.8507652 1318.67963008 267.4646238 1317.87074573 258.07055664 1316.94604492 C242.42325748 1315.40890226 226.76566611 1314.35897057 211.07055664 1313.44604492 C212.71708904 1290.76606515 216.26728252 1269.16437157 223.07055664 1247.44604492 C223.45598633 1246.19178711 223.84141602 1244.9375293 224.23852539 1243.64526367 C226.6078296 1236.21055047 226.6078296 1236.21055047 228.59790039 1232.92260742 C230.03192725 1230.51100787 230.75003284 1228.52184515 231.44555664 1225.82104492 C232.78717811 1221.10799126 234.61403811 1216.82509009 236.70336914 1212.39916992 C238.14683539 1209.28128282 239.45030208 1206.12307578 240.75805664 1202.94604492 C245.05251177 1192.84342333 249.97415555 1182.59064655 256.07055664 1173.44604492 C256.07055664 1172.45604492 256.07055664 1171.46604492 256.07055664 1170.44604492 C256.73055664 1170.44604492 257.39055664 1170.44604492 258.07055664 1170.44604492 C259.35726636 1168.63509125 259.35726636 1168.63509125 260.63305664 1166.25854492 C263.54581831 1161.20638509 266.77189099 1156.46706444 270.17431641 1151.73828125 C272.38925455 1148.87555403 272.38925455 1148.87555403 273.07055664 1145.44604492 C273.73055664 1145.44604492 274.39055664 1145.44604492 275.07055664 1145.44604492 C276.05598169 1144.03949806 277.03248108 1142.62542071 277.95141602 1141.17456055 C280.46231329 1137.29647313 283.42287686 1133.71174579 286.24243164 1130.05541992 C288.26182045 1127.70405184 288.26182045 1127.70405184 288.07055664 1125.44604492 C288.73055664 1125.44604492 289.39055664 1125.44604492 290.07055664 1125.44604492 C291.50483037 1123.48055871 292.78914357 1121.51142811 294.07055664 1119.44604492 C295.17241179 1117.6945886 296.27679984 1115.9447244 297.38305664 1114.19604492 C297.99020508 1113.23569336 298.59735352 1112.2753418 299.22290039 1111.28588867 C300.8948344 1108.71612964 302.643588 1106.23781963 304.44555664 1103.75854492 C307.59794141 1099.31361058 310.32863126 1094.68482418 313.00805664 1089.94604492 C313.41008301 1089.23875244 313.81210938 1088.53145996 314.22631836 1087.80273438 C316.33816553 1084.33583771 316.33816553 1084.33583771 317.07055664 1080.44604492 C317.73055664 1080.44604492 318.39055664 1080.44604492 319.07055664 1080.44604492 C319.59004883 1079.40706055 320.10954102 1078.36807617 320.64477539 1077.29760742 C323.70336914 1071.18041992 326.76196289 1065.06323242 329.82055664 1058.94604492 C330.20598633 1058.17260742 330.59141602 1057.39916992 330.98852539 1056.60229492 C331.69109393 1055.20223054 332.40159955 1053.80611068 333.12133789 1052.41479492 C335.79141879 1047.21896182 337.95196592 1041.88678375 340.07055664 1036.44604492 C340.75669769 1034.73716532 341.44418235 1033.02882454 342.13305664 1031.32104492 C343.57136272 1027.72807798 344.95265035 1024.11940194 346.29321289 1020.48901367 C347.15423055 1018.22613811 348.08223382 1015.99564988 349.00805664 1013.75854492 C351.411261 1007.76413708 353.22652045 1001.63085359 355.07055664 995.44604492 C355.56262026 993.86226785 356.05620614 992.27896321 356.55102539 990.69604492 C359.32294074 981.75657491 361.79005564 972.92681014 363.42993164 963.70776367 C364.07055664 960.44604492 364.07055664 960.44604492 365.05493164 957.10229492 C366.23745711 952.84520323 366.92521336 948.62347667 367.57055664 944.25854492 C367.80952317 942.68162841 368.04911672 941.1048068 368.28930664 939.52807617 C368.41249268 938.70041748 368.53567871 937.87275879 368.66259766 937.02001953 C368.93271068 935.31576959 369.22978116 933.61555616 369.5546875 931.92089844 C371.48489771 921.61815982 371.99507043 911.20366823 372.63305664 900.75854492 C372.728694 899.21845261 372.728694 899.21845261 372.82626343 897.64724731 C374.67417478 867.58566355 376.1119477 837.68433618 373.36010742 807.64086914 C373.08729855 804.63077054 372.85217066 801.62033825 372.62915039 798.60620117 C371.83364649 788.44920743 370.26660575 778.69880234 368.01196289 768.76635742 C367.15710213 764.97087594 366.54031111 761.17653529 366.00805664 757.32104492 C365.36637763 752.83497045 364.3430105 748.80870624 362.78930664 744.55932617 C362.03721964 742.34802689 361.53816217 740.1709153 361.07055664 737.88354492 C360.31171878 734.23479956 359.16592296 730.94041438 357.78930664 727.48510742 C357.011925 725.27970949 356.5304244 723.11271926 356.07055664 720.82104492 C355.2765552 716.96915362 353.86316156 713.95955057 352.07055664 710.44604492 C351.6314042 708.99432444 351.21756276 707.53485275 350.82055664 706.07104492 C348.86574175 699.21879484 345.8388515 692.82872153 342.91943359 686.34667969 C341.28369416 682.68426052 339.70702865 678.99656925 338.18383789 675.28588867 C335.9350665 669.94368542 333.13720421 664.98051017 330.22216797 659.98242188 C326.53516204 653.61771176 323.28680046 647.05944627 320.07055664 640.44604492 C319.41055664 640.44604492 318.75055664 640.44604492 318.07055664 640.44604492 C317.67416992 639.3690332 317.67416992 639.3690332 317.26977539 638.27026367 C310.26592658 621.77585751 296.58554229 606.82018834 285.23461914 593.08276367 C282.4363507 589.67332107 279.71073965 586.20850099 276.99243164 582.73510742 C274.81695246 580.14398791 272.48567803 577.81663216 270.07055664 575.44604492 C268.83345325 574.20006361 267.59790197 572.9525402 266.36352539 571.70385742 C264.99508844 570.32620097 263.62659767 568.94859798 262.25805664 567.57104492 C261.58452148 566.88913086 260.91098633 566.2072168 260.21704102 565.50463867 C256.16914965 561.43737941 252.02078728 557.58341875 247.63037109 553.88696289 C246.07055664 552.44604492 246.07055664 552.44604492 245.07055664 550.44604492 C244.11149414 549.98198242 244.11149414 549.98198242 243.13305664 549.50854492 C241.07055664 548.44604492 241.07055664 548.44604492 239.07055664 545.44604492 C238.08055664 545.11604492 237.09055664 544.78604492 236.07055664 544.44604492 C234.94421768 543.31970596 233.82169948 542.1892817 232.71899414 541.03979492 C227.3815891 535.87946019 221.29425664 531.46551784 215.07055664 527.44604492 C212.55428546 525.64754316 210.04121235 523.84503436 207.53540039 522.03198242 C205.10860812 520.47052813 202.77926814 519.4213742 200.07055664 518.44604492 C200.07055664 517.78604492 200.07055664 517.12604492 200.07055664 516.44604492 C198.19747012 515.05175381 198.19747012 515.05175381 195.75805664 513.69604492 C194.84540039 513.16624023 193.93274414 512.63643555 192.99243164 512.09057617 C189.24619814 509.98206774 185.48260244 507.90944724 181.69946289 505.86791992 C179.43569023 504.64353174 177.18849987 503.39547059 174.94555664 502.13354492 C173.32199936 501.23509953 171.69673735 500.33973315 170.07055664 499.44604492 C169.48564453 499.1223291 168.90073242 498.79861328 168.2980957 498.46508789 C159.00069089 493.34160477 149.65787509 488.840907 139.77758789 484.95385742 C137.38983635 484.01065742 135.18023275 482.99870615 132.87524414 481.84057617 C130.36250688 480.59120681 128.0792339 479.74553056 125.38305664 479.00854492 C121.87310129 478.01318445 118.46480318 476.88374085 115.05102539 475.59838867 C95.05837044 468.2686992 74.50060532 463.13949435 53.47094727 459.96801758 C50.19549936 459.4652241 46.92846087 458.92423555 43.66040039 458.37573242 C18.47291669 454.29117377 -4.86050036 454.67958999 -29.97167969 458.99560547 Z " fill="#484B4D" transform="translate(1015.929443359375,-0.446044921875)"/>
</svg>
