<svg width="221" height="299" viewBox="0 0 221 299" fill="none" xmlns="http://www.w3.org/2000/svg">
<path d="M40.5 79C40.5 79 42.1828 94.4498 48.7378 100.897C55.2927 107.345 71 109 71 109C71 109 55.2927 110.655 48.7378 117.103C42.1828 123.55 40.5 139 40.5 139C40.5 139 38.8172 123.55 32.2622 117.103C25.7073 110.655 10 109 10 109C10 109 25.7073 107.345 32.2622 100.897C38.8172 94.4498 40.5 79 40.5 79Z" fill="white" fill-opacity="0.1"/>
<path d="M171.5 0C171.5 0 173.183 30.3846 179.738 43.0646C186.293 55.7447 202 59 202 59C202 59 186.293 62.2553 179.738 74.9354C173.183 87.6154 171.5 118 171.5 118C171.5 118 169.817 87.6154 163.262 74.9354C156.707 62.2553 141 59 141 59C141 59 156.707 55.7447 163.262 43.0646C169.817 30.3846 171.5 0 171.5 0Z" fill="white" fill-opacity="0.1"/>
<path d="M40 181C40 181 42.207 211.385 50.8036 224.065C59.4003 236.745 80 240 80 240C80 240 59.4003 243.255 50.8036 255.935C42.207 268.615 40 299 40 299C40 299 37.793 268.615 29.1964 255.935C20.5997 243.255 0 240 0 240C0 240 20.5997 236.745 29.1964 224.065C37.793 211.385 40 181 40 181Z" fill="white" fill-opacity="0.1"/>
<path d="M181 152C181 152 183.207 172.6 191.804 181.196C200.4 189.793 221 192 221 192C221 192 200.4 194.207 191.804 202.804C183.207 211.4 181 232 181 232C181 232 178.793 211.4 170.196 202.804C161.6 194.207 141 192 141 192C141 192 161.6 189.793 170.196 181.196C178.793 172.6 181 152 181 152Z" fill="white" fill-opacity="0.1"/>
<path d="M111 104C111 104 113.207 124.6 121.804 133.196C130.4 141.793 151 144 151 144C151 144 130.4 146.207 121.804 154.804C113.207 163.4 111 184 111 184C111 184 108.793 163.4 100.196 154.804C91.5997 146.207 71 144 71 144C71 144 91.5997 141.793 100.196 133.196C108.793 124.6 111 104 111 104Z" fill="white" fill-opacity="0.25"/>
</svg>
