<svg width="29" height="29" viewBox="0 0 29 29" fill="none" xmlns="http://www.w3.org/2000/svg">
<path d="M14.6667 2.99984H8.4C6.15979 2.99984 5.03969 2.99984 4.18404 3.43581C3.43139 3.8193 2.81947 4.43123 2.43597 5.18388C2 6.03952 2 7.15963 2 9.39984V20.5998C2 22.84 2 23.9602 2.43597 24.8158C2.81947 25.5685 3.43139 26.1804 4.18404 26.5639C5.03969 26.9998 6.15979 26.9998 8.4 26.9998H20.6667C21.9066 26.9998 22.5266 26.9998 23.0353 26.8635C24.4156 26.4937 25.4938 25.4155 25.8637 24.0351C26 23.5264 26 22.9065 26 21.6665M23.3333 9.6665V1.6665M19.3333 5.6665H27.3333M12 10.3332C12 11.8059 10.8061 12.9998 9.33333 12.9998C7.86057 12.9998 6.66667 11.8059 6.66667 10.3332C6.66667 8.86041 7.86057 7.6665 9.33333 7.6665C10.8061 7.6665 12 8.86041 12 10.3332ZM17.9867 14.8907L6.7082 25.1439C6.07382 25.7206 5.75663 26.009 5.72857 26.2588C5.70425 26.4753 5.78727 26.69 5.95091 26.8339C6.13971 26.9998 6.56837 26.9998 7.42571 26.9998H19.9413C21.8602 26.9998 22.8196 26.9998 23.5732 26.6775C24.5193 26.2728 25.2729 25.5191 25.6776 24.5731C26 23.8195 26 22.86 26 20.9411C26 20.2955 26 19.9727 25.9294 19.672C25.8407 19.2942 25.6706 18.9403 25.431 18.635C25.2403 18.3921 24.9883 18.1904 24.4841 17.7871L20.7544 14.8034C20.2499 14.3997 19.9976 14.1979 19.7197 14.1267C19.4748 14.0639 19.2172 14.072 18.9767 14.1501C18.7039 14.2387 18.4648 14.456 17.9867 14.8907Z" stroke="#667085" stroke-width="2.66667" stroke-linecap="round" stroke-linejoin="round"/>
</svg>
