<svg width="56" height="56" viewBox="0 0 56 56" fill="none" xmlns="http://www.w3.org/2000/svg">
<rect width="56" height="56" rx="12" fill="#BCE4FF"/>
<rect x="7" y="7" width="42" height="42" rx="8" fill="#F5FBFF"/>
<path d="M27.9999 39.6663C34.4432 39.6663 39.6666 34.443 39.6666 27.9997C39.6666 21.5564 34.4432 16.333 27.9999 16.333C21.5566 16.333 16.3333 21.5564 16.3333 27.9997C16.3333 34.443 21.5566 39.6663 27.9999 39.6663Z" stroke="#3498DB" stroke-width="1.5" stroke-linecap="round" stroke-linejoin="round"/>
<path d="M25.0833 24.4592C25.0833 23.9024 25.0833 23.624 25.1996 23.4685C25.301 23.3331 25.4563 23.2484 25.625 23.2363C25.8187 23.2225 26.0529 23.373 26.5213 23.6741L32.0287 27.2146C32.4351 27.4759 32.6383 27.6065 32.7085 27.7726C32.7699 27.9178 32.7699 28.0816 32.7085 28.2267C32.6383 28.3928 32.4351 28.5235 32.0287 28.7848L26.5213 32.3252C26.0529 32.6263 25.8187 32.7769 25.625 32.7631C25.4563 32.751 25.301 32.6663 25.1996 32.5308C25.0833 32.3754 25.0833 32.097 25.0833 31.5401V24.4592Z" stroke="#3498DB" stroke-width="1.5" stroke-linecap="round" stroke-linejoin="round"/>
</svg>
